<svg width="186" height="186" viewBox="0 0 186 186" fill="none" xmlns="http://www.w3.org/2000/svg">
<path d="M186 9.50974V37.272C176.843 43.469 167.168 48.5959 155.802 50.1887C136.575 52.8766 118.607 50.1763 102.256 38.927C93.6417 33.0162 85.4351 26.2841 74.6863 24.3055C60.2476 21.6549 46.9319 23.8824 34.8256 32.5682C24.1262 40.2336 13.2293 47.4635 0 49.8527V25.8112C4.81315 24.2242 9.36069 21.9125 13.4885 18.9546C25.8292 10.2066 38.3674 2.20519 53.9785 0.55016C71.7739 -1.35375 88.3352 1.53322 103.416 11.5754C106.846 13.8651 110.252 16.1796 113.659 18.4818C132.725 31.386 153.26 31.4234 172.351 18.2702C176.843 15.1717 181.335 12.1603 186 9.50974Z" fill="white"/>
<path d="M186 78.3952V103.634C176.843 109.267 167.168 113.928 155.802 115.376C136.575 117.82 118.607 115.365 102.256 105.138C93.6417 99.7647 85.4351 93.6446 74.6863 91.8459C60.2476 89.4363 46.9319 91.4613 34.8256 99.3575C24.1262 106.326 13.2293 112.899 0 115.071V93.226C4.81359 91.7791 9.36106 89.6739 13.4885 86.9815C25.8292 79.0287 38.3674 71.7547 53.9785 70.2501C71.7739 68.5193 88.3352 71.1438 103.416 80.2731C106.846 82.3546 110.252 84.4588 113.659 86.5516C132.725 98.2828 153.26 98.3167 172.351 86.3593C176.843 83.5425 181.335 80.8048 186 78.3952Z" fill="white"/>
<path d="M186 144.36V172.122C176.843 178.319 167.168 183.446 155.802 185.039C136.575 187.727 118.607 185.026 102.256 173.777C93.6417 167.866 85.4351 161.134 74.6863 159.155C60.2476 156.505 46.9319 158.732 34.8256 167.418C24.1262 175.084 13.2293 182.313 0 184.703V160.661C4.81314 159.074 9.36068 156.763 13.4885 153.805C25.8292 145.057 38.3674 137.055 53.9785 135.4C71.7739 133.496 88.3352 136.383 103.416 146.425C106.846 148.715 110.252 151.03 113.659 153.332C132.725 166.236 153.26 166.273 172.351 153.12C176.843 150.022 181.335 147.01 186 144.36Z" fill="white"/>
</svg>
