<svg width="27" height="25" viewBox="0 0 27 25" fill="none" xmlns="http://www.w3.org/2000/svg">
<path d="M10.1607 11.9107C8.98283 11.9107 7.83143 11.5614 6.85207 10.9071C5.87272 10.2527 5.1094 9.32258 4.65865 8.23438C4.2079 7.14618 4.08997 5.94876 4.31975 4.79353C4.54954 3.6383 5.11674 2.57716 5.94961 1.74429C6.78248 0.911414 7.84362 0.344221 8.99885 0.114433C10.1541 -0.115356 11.3515 0.00258123 12.4397 0.45333C13.5279 0.904078 14.458 1.66739 15.1124 2.64675C15.7668 3.6261 16.116 4.77751 16.116 5.95537C16.1144 7.53432 15.4864 9.04811 14.3699 10.1646C13.2534 11.2811 11.7396 11.909 10.1607 11.9107ZM10.1607 1.99335C9.37708 1.99335 8.61106 2.22571 7.95951 2.66107C7.30796 3.09642 6.80013 3.7152 6.50025 4.43916C6.20038 5.16313 6.12191 5.95976 6.27479 6.72831C6.42766 7.49687 6.80501 8.20284 7.3591 8.75694C7.9132 9.31104 8.61917 9.68838 9.38772 9.84126C10.1563 9.99414 10.9529 9.91568 11.6769 9.6158C12.4008 9.31593 13.0196 8.8081 13.455 8.15655C13.8903 7.505 14.1227 6.73899 14.1227 5.95537C14.1216 4.90491 13.7038 3.89779 12.9611 3.155C12.2183 2.41221 11.2112 1.99444 10.1607 1.99335Z" fill="#C4AE87"/>
<path d="M18.5571 24.2431C18.2927 24.2431 18.0393 24.138 17.8524 23.9511C17.6655 23.7642 17.5605 23.5108 17.5604 23.2465C17.5604 21.2839 16.7808 19.4018 15.3931 18.0141C14.0053 16.6263 12.1232 15.8467 10.1607 15.8467C8.19812 15.8467 6.31597 16.6263 4.92825 18.0141C3.54053 19.4018 2.76091 21.2839 2.76091 23.2465C2.76091 23.5108 2.65591 23.7643 2.469 23.9512C2.28208 24.1381 2.02858 24.2431 1.76425 24.2431C1.49991 24.2431 1.24641 24.1381 1.0595 23.9512C0.872584 23.7643 0.767578 23.5108 0.767578 23.2465C0.767578 20.7553 1.7572 18.3661 3.51875 16.6046C5.28029 14.843 7.66945 13.8534 10.1607 13.8534C12.6519 13.8534 15.041 14.843 16.8026 16.6046C18.5641 18.3661 19.5537 20.7553 19.5537 23.2465C19.5537 23.5108 19.4486 23.7642 19.2617 23.9511C19.0748 24.138 18.8214 24.2431 18.5571 24.2431Z" fill="#C4AE87"/>
<path d="M20.6126 12.9723C19.8646 12.9722 19.1304 12.771 18.4869 12.3896C18.374 12.323 18.2753 12.2347 18.1965 12.1298C18.1177 12.025 18.0604 11.9056 18.0278 11.7786C17.9952 11.6516 17.9879 11.5193 18.0065 11.3895C18.0251 11.2597 18.0691 11.1348 18.136 11.022C18.2029 10.9092 18.2914 10.8107 18.3964 10.7321C18.5014 10.6536 18.6209 10.5965 18.748 10.5642C18.8751 10.5318 19.0073 10.5249 19.1371 10.5438C19.2669 10.5626 19.3917 10.6069 19.5043 10.674C19.8012 10.8499 20.1357 10.9526 20.4801 10.9735C20.8245 10.9944 21.169 10.933 21.485 10.7943C21.8009 10.6555 22.0793 10.4435 22.297 10.1758C22.5147 9.90812 22.6655 9.59239 22.7369 9.25479C22.8083 8.91719 22.7982 8.56745 22.7075 8.23451C22.6168 7.90158 22.4481 7.59504 22.2154 7.34029C21.9826 7.08554 21.6925 6.8899 21.3691 6.76958C21.0457 6.64926 20.6983 6.60772 20.3557 6.64841C20.0934 6.68007 19.8293 6.60625 19.6214 6.44319C19.4136 6.28013 19.2791 6.04118 19.2474 5.77891C19.2157 5.51665 19.2895 5.25254 19.4526 5.0447C19.6157 4.83686 19.8546 4.70231 20.1169 4.67065C20.6815 4.60166 21.2543 4.64903 21.7999 4.80984C22.3456 4.97065 22.8525 5.24149 23.2895 5.60567C23.7264 5.96986 24.0842 6.41967 24.3407 6.92738C24.5972 7.4351 24.7471 7.98997 24.781 8.5578C24.8149 9.12562 24.7321 9.69438 24.5379 10.229C24.3436 10.7636 24.0419 11.2528 23.6513 11.6664C23.2608 12.08 22.7897 12.4092 22.2671 12.6338C21.7445 12.8584 21.1814 12.9736 20.6126 12.9723L20.6126 12.9723Z" fill="#C4AE87"/>
<path d="M25.8945 21.174C25.6302 21.1739 25.3768 21.0689 25.1899 20.882C25.003 20.6951 24.8979 20.4416 24.8979 20.1773C24.8978 19.4838 24.7328 18.8002 24.4164 18.1831C24.1001 17.5659 23.6414 17.0329 23.0784 16.6279C22.5154 16.223 21.8641 15.9578 21.1784 15.8543C20.4926 15.7507 19.7921 15.8117 19.1346 16.0323C19.0105 16.0739 18.8795 16.0907 18.7489 16.0816C18.6184 16.0725 18.4909 16.0379 18.3738 15.9795C18.2567 15.9212 18.1522 15.8404 18.0663 15.7417C17.9804 15.643 17.9148 15.5283 17.8732 15.4042C17.8316 15.2802 17.8149 15.1491 17.8239 15.0186C17.833 14.888 17.8677 14.7606 17.926 14.6434C17.9843 14.5263 18.0651 14.4218 18.1639 14.3359C18.2626 14.25 18.3772 14.1844 18.5013 14.1428C19.4585 13.8215 20.4784 13.7325 21.4768 13.8832C22.4751 14.0339 23.4233 14.42 24.243 15.0095C25.0627 15.5991 25.7304 16.3752 26.1908 17.2738C26.6513 18.1724 26.8914 19.1676 26.8912 20.1773C26.8911 20.4416 26.7861 20.6951 26.5992 20.882C26.4123 21.0689 26.1588 21.1739 25.8945 21.174Z" fill="#C4AE87"/>
</svg>
