<svg width="24" height="23" viewBox="0 0 24 23" fill="none" xmlns="http://www.w3.org/2000/svg">
<path d="M5.35965 22.0957C5.13473 22.095 4.91266 22.0453 4.70889 21.9501C4.50512 21.8549 4.32455 21.7164 4.17973 21.5443C4.03492 21.3722 3.92934 21.1706 3.87035 20.9536C3.81136 20.7365 3.80037 20.5092 3.83814 20.2875L4.88935 14.1586L0.466562 9.90968C0.260156 9.7085 0.11415 9.45359 0.0450503 9.17376C-0.0240491 8.89394 -0.0134854 8.60036 0.075547 8.32623C0.164579 8.05209 0.328529 7.80833 0.548861 7.6225C0.769192 7.43668 1.03712 7.3162 1.32234 7.27469L7.47709 6.38132L10.1497 0.861153C10.2773 0.602648 10.4747 0.385006 10.7196 0.232827C10.9645 0.0806475 11.247 0 11.5354 0C11.8237 0 12.1062 0.0806475 12.3511 0.232827C12.596 0.385006 12.7934 0.602648 12.921 0.861153L15.6731 6.43823L21.7484 7.27469C22.0338 7.31604 22.302 7.43652 22.5225 7.62246C22.743 7.8084 22.907 8.05238 22.996 8.32676C23.0849 8.60113 23.0953 8.89494 23.0258 9.1749C22.9564 9.45485 22.8099 9.70976 22.6031 9.91075L18.1513 14.2509L19.2326 20.2875C19.2813 20.5717 19.2496 20.8639 19.141 21.1309C19.0324 21.398 18.8512 21.6294 18.6179 21.7989C18.3846 21.9684 18.1086 22.0692 17.821 22.09C17.5334 22.1107 17.2458 22.0506 16.9906 21.9164L11.4876 19.0226L6.07907 21.9164C5.85746 22.0339 5.61049 22.0955 5.35965 22.0957ZM1.76902 8.87673L6.07048 13.0697C6.25023 13.2449 6.38463 13.4611 6.46208 13.6999C6.53953 13.9386 6.55769 14.1925 6.51501 14.4398L5.49925 20.3573L10.8175 17.5623C11.0391 17.4459 11.2856 17.3851 11.5359 17.3851C11.7861 17.3851 12.0327 17.4459 12.2542 17.5623L17.5715 20.3573L16.5557 14.4377C16.5135 14.1907 16.5319 13.9372 16.6094 13.6989C16.6868 13.4607 16.8209 13.2447 17.0002 13.0697L21.3017 8.87673L15.3574 8.01343C15.1098 7.97726 14.8746 7.88157 14.6721 7.73458C14.4695 7.58758 14.3057 7.39367 14.1945 7.16946L11.5348 1.78137L8.87727 7.16838C8.76641 7.39292 8.60265 7.58715 8.40008 7.73436C8.1975 7.88157 7.96219 7.97734 7.71439 8.01343L1.76902 8.87673Z" fill="#C4AE87"/>
</svg>
