<svg width="23" height="23" viewBox="0 0 23 23" fill="none" xmlns="http://www.w3.org/2000/svg">
<path d="M14.8355 6.95889L14.0629 6.38631C13.6808 6.10358 13.2845 5.82201 12.8799 5.55584C12.4753 5.29202 12.0684 5.04715 11.6567 4.81054L10.8203 4.33143L12.363 1.97369C12.5351 1.70955 12.758 1.48231 13.0188 1.3052C13.2796 1.12809 13.573 1.00466 13.882 0.942091C14.3461 0.846361 14.8282 0.89008 15.2675 1.06774C15.7068 1.24541 16.0838 1.54907 16.3509 1.94051C16.618 2.33195 16.7634 2.79367 16.7686 3.26753C16.7739 3.7414 16.6388 4.20623 16.3805 4.60351L16.3793 4.60472L14.8355 6.95889ZM13.3887 3.72686C13.5507 3.82742 13.7128 3.93034 13.8749 4.03563C14.0393 4.14328 14.2026 4.25449 14.3635 4.3657L14.8591 3.60978C14.943 3.48036 14.9722 3.32301 14.9404 3.17212C14.9086 3.02123 14.8183 2.88906 14.6894 2.8045C14.5604 2.71994 14.4032 2.68986 14.2522 2.72082C14.1011 2.75179 13.9684 2.84129 13.8832 2.96977L13.3887 3.72686Z" fill="#C4AE87"/>
<path d="M3.08112 22.9212C2.64887 22.9204 2.22484 22.803 1.85379 22.5813C1.48274 22.3596 1.17842 22.0418 0.972948 21.6615C0.767478 21.2812 0.668475 20.8525 0.68639 20.4206C0.704304 19.9887 0.83847 19.5697 1.07473 19.2077L10.4868 4.84009L11.2238 5.2447C11.6768 5.49313 12.1193 5.75931 12.5594 6.04797C12.9983 6.33426 13.4277 6.64066 13.8371 6.95652L14.5019 7.47112L5.08986 21.8376C4.91835 22.1014 4.69619 22.3285 4.43625 22.5057C4.17632 22.683 3.88379 22.807 3.57561 22.8703C3.41296 22.9042 3.24726 22.9213 3.08112 22.9212ZM11.0747 7.25816L2.59368 20.2038C2.55216 20.267 2.52365 20.3379 2.50984 20.4122C2.49602 20.4866 2.49718 20.5629 2.51323 20.6368C2.52916 20.7126 2.55994 20.7844 2.6038 20.8481C2.64767 20.9119 2.70373 20.9663 2.76877 21.0083C2.89696 21.0925 3.05332 21.1223 3.20349 21.0912C3.35367 21.0602 3.48537 20.9708 3.56966 20.8427L12.0495 7.89698C11.8898 7.7846 11.7281 7.67498 11.5644 7.56811C11.4012 7.46164 11.2392 7.35753 11.0747 7.25816Z" fill="#C4AE87"/>
<path d="M20.3187 16.1296C19.9366 16.1282 19.5618 16.0238 19.234 15.8275C18.9061 15.6312 18.6372 15.3502 18.4555 15.014C17.0481 12.4233 15.0968 10.1677 12.7356 8.40214C12.3535 8.10756 11.9643 7.82956 11.5644 7.56811C11.1635 7.3043 10.7612 7.06417 10.3483 6.837C7.78119 5.37603 4.93081 4.48213 1.98914 4.21553C1.53613 4.17933 1.1069 3.99792 0.765243 3.69826C0.423586 3.3986 0.187744 2.99669 0.0927761 2.55227C0.034711 2.28132 0.031704 2.00146 0.0839338 1.72932C0.136164 1.45718 0.242564 1.19832 0.396814 0.968109C0.604228 0.645785 0.895531 0.386054 1.23944 0.216811C1.58334 0.0475679 1.96685 -0.0247918 2.34878 0.00750312C5.94634 0.330546 9.4307 1.43172 12.5605 3.23475C13.003 3.48794 13.4407 3.75173 13.8749 4.03565C14.3114 4.32194 14.7338 4.62243 15.1443 4.92646C18.0415 7.07603 20.4391 9.8272 22.1725 12.991C22.3312 13.2812 22.4198 13.6045 22.4313 13.935C22.4428 14.2655 22.377 14.5941 22.2389 14.8946C22.1009 15.1951 21.8945 15.4592 21.6363 15.6658C21.3781 15.8725 21.0752 16.0159 20.7517 16.0846H20.7505C20.6084 16.1141 20.4638 16.1292 20.3187 16.1296ZM2.16305 1.81632C2.11349 1.81889 2.0653 1.83348 2.02264 1.85883C1.97997 1.88418 1.94412 1.91953 1.91817 1.96183C1.89494 1.99272 1.87878 2.02833 1.8708 2.06614C1.86283 2.10395 1.86325 2.14305 1.87202 2.18069C1.88862 2.24363 1.92511 2.29952 1.97606 2.34003C2.02702 2.38054 2.0897 2.40349 2.15477 2.40546C5.34963 2.69517 8.4455 3.66527 11.2344 5.2506C11.6768 5.49312 12.1185 5.75891 12.5593 6.04796C12.9982 6.33425 13.4277 6.64065 13.837 6.95651C16.4018 8.87579 18.5213 11.327 20.0502 14.1421C20.0803 14.2012 20.1287 14.2491 20.1881 14.2785C20.2476 14.3079 20.315 14.3173 20.3802 14.3054C20.4252 14.296 20.4673 14.2762 20.5031 14.2474C20.5389 14.2186 20.5673 14.1817 20.5861 14.1397C20.6069 14.0961 20.617 14.0481 20.6156 13.9997C20.6141 13.9514 20.6012 13.9041 20.5778 13.8617C18.9702 10.9289 16.7474 8.37841 14.0617 6.38515C13.6808 6.1036 13.2845 5.82203 12.8799 5.55586C12.4753 5.29204 12.0684 5.04717 11.6567 4.81056C8.75398 3.13887 5.52282 2.11766 2.18666 1.81754L2.16305 1.81632Z" fill="#C4AE87"/>
</svg>
