<svg width="18" height="23" viewBox="0 0 18 23" fill="none" xmlns="http://www.w3.org/2000/svg">
<path d="M7.60543 22.6409C7.11818 22.6406 6.63551 22.5469 6.18357 22.3648L3.26464 21.1933C2.32638 20.815 1.57639 20.0802 1.17909 19.1498C0.781801 18.2195 0.769627 17.1695 1.14524 16.2302L5.9672 4.2196L15.9677 8.23486L11.1457 20.2454C10.8615 20.9521 10.3726 21.5577 9.74183 21.9845C9.11103 22.4113 8.36707 22.6399 7.60543 22.6409ZM6.84711 6.27821L2.6145 16.8195C2.39444 17.3691 2.40135 17.9836 2.63372 18.5281C2.86608 19.0726 3.30492 19.5027 3.85398 19.724L6.77291 20.8956C7.32235 21.1158 7.93671 21.1089 8.4811 20.8765C9.02548 20.6441 9.4554 20.2052 9.67644 19.6561L13.909 9.11476L6.84711 6.27821Z" fill="#C4AE87"/>
<path d="M15.3785 9.70404L5.37805 5.68884L6.91427 1.86219C7.20795 1.13164 7.7797 0.547608 8.50384 0.238477C9.22798 -0.0706547 10.0452 -0.079583 10.776 0.213655L15.2662 2.0157C15.9967 2.30939 16.5807 2.88114 16.8898 3.60528C17.199 4.32941 17.2079 5.14667 16.9147 5.87739L15.3785 9.70404ZM7.43663 4.80894L14.4985 7.64544L15.4454 5.28805C15.5825 4.94701 15.5785 4.56551 15.4344 4.2274C15.2902 3.88929 15.0177 3.62224 14.6768 3.48495L10.1866 1.68291C9.84557 1.54587 9.46407 1.54986 9.12597 1.69398C8.78786 1.83811 8.52081 2.11059 8.38352 2.45153L7.43663 4.80894Z" fill="#C4AE87"/>
<path d="M12.1132 8.33259C11.9349 8.33275 11.7617 8.27267 11.6218 8.16209C11.4819 8.05151 11.3834 7.89691 11.3424 7.72336C11.3014 7.54981 11.3202 7.36749 11.3957 7.20596C11.4713 7.04443 11.5992 6.91317 11.7587 6.83345C11.936 6.74427 12.0848 6.60726 12.1882 6.43792C12.2916 6.26858 12.3456 6.07367 12.344 5.87525C12.3444 5.72944 12.3161 5.58498 12.2606 5.45014C12.2051 5.3153 12.1236 5.19273 12.0206 5.08947C11.9177 4.98621 11.7954 4.90428 11.6607 4.84838C11.526 4.79248 11.3817 4.7637 11.2359 4.7637C11.09 4.7637 10.9457 4.79248 10.811 4.84838C10.6763 4.90428 10.554 4.98621 10.4511 5.08947C10.3481 5.19273 10.2666 5.3153 10.2111 5.45014C10.1556 5.58498 10.1273 5.72944 10.1277 5.87525C10.1244 5.97317 10.1402 6.07081 10.1742 6.16271C10.2139 6.25878 10.2344 6.36175 10.2344 6.46573C10.2344 6.56971 10.2139 6.67268 10.1741 6.76874C10.1343 6.8648 10.0759 6.95208 10.0024 7.0256C9.92886 7.09912 9.84156 7.15743 9.74549 7.19721C9.64942 7.23699 9.54645 7.25746 9.44247 7.25744C9.33849 7.25743 9.23553 7.23693 9.13946 7.19713C9.0434 7.15732 8.95612 7.09899 8.8826 7.02545C8.80909 6.95192 8.75077 6.86462 8.71099 6.76855C8.59762 6.48455 8.54126 6.18102 8.54511 5.87525C8.54441 5.52145 8.61349 5.17099 8.74839 4.84392C8.8833 4.51685 9.08139 4.2196 9.33131 3.96918C9.58124 3.71876 9.8781 3.52008 10.2049 3.38453C10.5317 3.24897 10.882 3.1792 11.2358 3.1792C11.5896 3.1792 11.9399 3.24897 12.2667 3.38453C12.5935 3.52008 12.8904 3.71876 13.1403 3.96918C13.3903 4.2196 13.5883 4.51685 13.7233 4.84392C13.8582 5.17099 13.9272 5.52145 13.9265 5.87525C13.9293 6.36795 13.7938 6.85155 13.5356 7.27116C13.2773 7.69077 12.9066 8.02958 12.4655 8.24914C12.3562 8.30398 12.2355 8.33256 12.1132 8.33259Z" fill="#C4AE87"/>
</svg>