<svg width="31" height="30" viewBox="0 0 31 30" fill="none" xmlns="http://www.w3.org/2000/svg">
<path d="M30.3541 14.9878C30.3538 12.1233 29.5223 9.31882 27.9583 6.90647C26.3943 4.49412 24.1632 2.57489 21.5291 1.376C18.895 0.177117 15.9682 -0.251225 13.0953 0.141688C10.2224 0.534601 7.52362 1.73232 5.3185 3.59304C3.11337 5.45376 1.49424 7.89956 0.652781 10.6409C-0.188675 13.3822 -0.217215 16.3043 0.57054 19.0612C1.3583 21.818 2.92936 24.2942 5.09773 26.1966C7.2661 28.099 9.94098 29.3479 12.8057 29.7955V19.3208H8.95209V14.9878H12.8057V11.6853C12.8057 7.92861 15.0715 5.8534 18.5382 5.8534C19.6764 5.86903 20.8119 5.96689 21.9356 6.1462V9.83506H20.0218C19.6957 9.79233 19.3641 9.82258 19.0514 9.92358C18.7387 10.0246 18.4531 10.1937 18.2156 10.4185C17.9781 10.6433 17.7948 10.918 17.6793 11.2222C17.5638 11.5264 17.5191 11.8524 17.5484 12.176V14.9878H21.7578L21.0848 19.3208H17.5484V29.7955C21.1183 29.237 24.3693 27.4389 26.7167 24.7245C29.0641 22.0101 30.3539 18.5576 30.3541 14.9878V14.9878Z" fill="white"/>
</svg>
