<svg width="25" height="24" viewBox="0 0 25 24" fill="none" xmlns="http://www.w3.org/2000/svg">
<path d="M4.52927 0H2.29663V24H4.52927V0Z" fill="#C4AE87"/>
<path d="M13.3105 0H11.0779V24H13.3105V0Z" fill="#C4AE87"/>
<path d="M22.7033 0H20.4707V24H22.7033V0Z" fill="#C4AE87"/>
<path d="M3.41299 10.186C5.29793 10.186 6.82598 8.6202 6.82598 6.6887C6.82598 4.7572 5.29793 3.19141 3.41299 3.19141C1.52805 3.19141 0 4.7572 0 6.6887C0 8.6202 1.52805 10.186 3.41299 10.186Z" fill="#C4AE87"/>
<path d="M12.221 21.2023C14.1059 21.2023 15.634 19.6366 15.634 17.7051C15.634 15.7736 14.1059 14.2078 12.221 14.2078C10.336 14.2078 8.80798 15.7736 8.80798 17.7051C8.80798 19.6366 10.336 21.2023 12.221 21.2023Z" fill="#C4AE87"/>
<path d="M21.5871 15.4974C23.472 15.4974 25.0001 13.9316 25.0001 12.0001C25.0001 10.0686 23.472 8.50284 21.5871 8.50284C19.7021 8.50284 18.1741 10.0686 18.1741 12.0001C18.1741 13.9316 19.7021 15.4974 21.5871 15.4974Z" fill="#C4AE87"/>
</svg>
