<svg width="26" height="22" viewBox="0 0 26 22" fill="none" xmlns="http://www.w3.org/2000/svg">
<path d="M12.795 21.4983H8.03496C6.25963 21.5431 4.52572 20.9582 3.14023 19.8472C1.75474 18.7363 0.807052 17.1709 0.464959 15.4283L0.0549593 13.5683C-0.0723942 12.9324 0.0231267 12.2721 0.325453 11.6984C0.627779 11.1247 1.11846 10.6727 1.71496 10.4183L8.64496 7.63828C9.78206 7.18828 11.0479 7.18828 12.185 7.63828L19.115 10.4183C19.7142 10.6692 20.2075 11.1206 20.5103 11.6953C20.8132 12.27 20.9067 12.9322 20.775 13.5683L20.365 15.4283C20.0229 17.1709 19.0752 18.7363 17.6897 19.8472C16.3042 20.9582 14.5703 21.5431 12.795 21.4983ZM10.415 8.79828C9.99777 8.80098 9.58449 8.87889 9.19496 9.02828L2.26496 11.8083C1.99846 11.9296 1.77949 12.1356 1.64206 12.3942C1.50463 12.6528 1.45643 12.9495 1.50496 13.2383L1.91496 15.0983C2.17845 16.5103 2.94026 17.7807 4.06168 18.6782C5.18311 19.5757 6.58956 20.0406 8.02496 19.9883H12.785C14.2204 20.0406 15.6268 19.5757 16.7482 18.6782C17.8697 17.7807 18.6315 16.5103 18.895 15.0983L19.305 13.2383C19.3535 12.9495 19.3053 12.6528 19.1679 12.3942C19.0304 12.1356 18.8115 11.9296 18.545 11.8083L11.615 9.02828C11.2329 8.87718 10.8258 8.79916 10.415 8.79828Z" fill="#C4AE87"/>
<path d="M10.4171 21.5C10.2186 21.4986 10.0287 21.4191 9.88836 21.2788C9.74802 21.1384 9.66854 20.9485 9.66711 20.75V8.75C9.66711 8.55109 9.74613 8.36032 9.88678 8.21967C10.0274 8.07902 10.2182 8 10.4171 8C10.616 8 10.8068 8.07902 10.9474 8.21967C11.0881 8.36032 11.1671 8.55109 11.1671 8.75V20.75C11.1657 20.9485 11.0862 21.1384 10.9459 21.2788C10.8055 21.4191 10.6156 21.4986 10.4171 21.5Z" fill="#C4AE87"/>
<path d="M17.4193 11.3C17.324 11.298 17.2295 11.2811 17.1393 11.25L11.6293 9.04C10.849 8.73001 9.97966 8.73001 9.19932 9.04L3.68932 11.25C3.57484 11.2941 3.45139 11.3099 3.32949 11.296C3.20759 11.2821 3.09088 11.2388 2.98932 11.17C2.88714 11.1022 2.80346 11.01 2.74585 10.9018C2.68823 10.7935 2.65849 10.6726 2.65932 10.55V6.75C2.65968 5.75555 3.05489 4.80194 3.75807 4.09875C4.46125 3.39557 5.41486 3.00037 6.40931 3H14.4093C15.4038 3.00037 16.3574 3.39557 17.0606 4.09875C17.7637 4.80194 18.1589 5.75555 18.1593 6.75V10.55C18.1601 10.6726 18.1304 10.7935 18.0728 10.9018C18.0152 11.01 17.9315 11.1022 17.8293 11.17C17.7107 11.2574 17.5666 11.3031 17.4193 11.3ZM10.4193 7.3C11.0257 7.29859 11.6266 7.41403 12.1893 7.64L16.6693 9.44V6.75C16.6684 6.15354 16.4311 5.58176 16.0093 5.16C15.5876 4.73823 15.0158 4.50089 14.4193 4.5H6.41932C5.82286 4.5009 5.25108 4.73824 4.82932 5.16C4.40756 5.58176 4.17022 6.15354 4.16932 6.75V9.44L8.64932 7.64C9.21338 7.41876 9.81343 7.3035 10.4193 7.3Z" fill="#C4AE87"/>
<path d="M12.9171 4.5H7.91711C7.71864 4.49857 7.52871 4.41909 7.38836 4.27875C7.24802 4.13841 7.16854 3.94847 7.16711 3.75V1.75C7.16932 1.28655 7.3544 0.842712 7.68211 0.515001C8.00983 0.187289 8.45367 0.00220608 8.91711 0L11.9171 0C12.3806 0.00220608 12.8244 0.187289 13.1521 0.515001C13.4798 0.842712 13.6649 1.28655 13.6671 1.75V3.75C13.6657 3.94847 13.5862 4.13841 13.4459 4.27875C13.3055 4.41909 13.1156 4.49857 12.9171 4.5ZM8.66711 3H12.1671V1.75C12.1674 1.71708 12.1612 1.68442 12.1487 1.65395C12.1363 1.62347 12.1179 1.59578 12.0946 1.5725C12.0713 1.54922 12.0436 1.53082 12.0132 1.51837C11.9827 1.50592 11.95 1.49968 11.9171 1.5H8.91711C8.88419 1.49968 8.85154 1.50592 8.82106 1.51837C8.79058 1.53082 8.76289 1.54922 8.73961 1.5725C8.71633 1.59578 8.69793 1.62347 8.68548 1.65395C8.67303 1.68442 8.66679 1.71708 8.66711 1.75V3Z" fill="#C4AE87"/>
<path d="M24.2324 19.0005C24.0335 19.0004 23.8428 18.9214 23.7022 18.7808C23.5615 18.6401 23.4825 18.4494 23.4824 18.2505V2.15283C23.4824 1.95392 23.5614 1.76315 23.7021 1.6225C23.8427 1.48185 24.0335 1.40283 24.2324 1.40283C24.4313 1.40283 24.6221 1.48185 24.7628 1.6225C24.9034 1.76315 24.9824 1.95392 24.9824 2.15283V18.2505C24.9824 18.4494 24.9033 18.6401 24.7627 18.7808C24.6221 18.9214 24.4313 19.0004 24.2324 19.0005Z" fill="#C4AE87"/>
<path d="M22.7363 2.59L24.2323 0L25.7283 2.59H22.7363Z" fill="#C4AE87"/>
<path d="M22.7363 17.812L24.2323 20.403L25.7283 17.812H22.7363Z" fill="#C4AE87"/>
</svg>
