<svg width="112" height="111" viewBox="0 0 112 111" fill="none" xmlns="http://www.w3.org/2000/svg">
<rect x="0.0544434" width="111" height="111" rx="7" fill="#ECF4FA"/>
<path d="M49.6103 66.1013C51.4855 61.2866 53.8386 56.6891 56.5465 52.2942C57.6977 50.4335 58.9937 48.6669 60.2245 46.8568C60.5431 46.3862 60.7965 46.1256 61.3395 46.2197C61.9042 46.3283 62.1214 46.9003 62.23 47.3492C62.3242 47.7546 62.3893 48.1673 62.5052 48.5728C62.9903 50.2308 64.8293 56.5515 67.1679 64.5954C67.4719 65.6235 68.5652 66.1955 69.5861 65.8624C74.2488 64.3347 79.1142 63.0677 84.11 62.2061C84.986 62.0541 85.5363 61.1852 85.2901 60.3309C80.0193 42.3969 75.2045 26.0267 74.5239 23.6664C74.0026 21.8781 73.6261 21.6174 71.7292 21.6102C68.2684 21.5885 64.8148 21.6391 61.3612 21.5812C60.0145 21.5595 58.885 21.9939 57.9004 22.8121C53.8821 26.157 50.1533 29.8061 46.859 33.8679C42.2036 39.6021 38.4387 45.9011 35.224 52.5332C33.3343 56.4356 31.7342 60.4612 30.3658 64.5592C29.1639 68.1648 28.2444 71.8646 27.3466 75.5716C26.4633 79.2206 25.8624 82.9059 25.4352 86.6056C25.2904 87.8944 26.7602 88.727 27.7955 87.9523C30.9595 85.5848 36.7372 81.494 44.2888 77.2151C45.5703 76.4911 46.5332 75.3037 46.9532 73.8918C47.7351 71.2564 48.6112 68.6644 49.6103 66.1013Z" fill="#006987"/>
</svg>
