<svg width="32" height="30" viewBox="0 0 32 30" fill="none" xmlns="http://www.w3.org/2000/svg">
<path d="M15.8704 30C24.2525 30 31.0475 23.2888 31.0475 15.0102C31.0475 6.73155 24.2525 0.0203857 15.8704 0.0203857C7.48837 0.0203857 0.693359 6.73155 0.693359 15.0102C0.693359 23.2888 7.48837 30 15.8704 30Z" fill="white"/>
<path d="M20.5814 9.33948C20.3751 9.33949 20.1734 9.39993 20.0018 9.51316C19.8303 9.62638 19.6966 9.78731 19.6176 9.97559C19.5386 10.1639 19.518 10.371 19.5583 10.5709C19.5985 10.7708 19.6979 10.9544 19.8438 11.0985C19.9897 11.2426 20.1756 11.3407 20.378 11.3804C20.5803 11.4202 20.7901 11.3998 20.9807 11.3218C21.1714 11.2438 21.3343 11.1117 21.4489 10.9423C21.5635 10.7728 21.6247 10.5736 21.6247 10.3698C21.6247 10.0965 21.5147 9.83446 21.3191 9.64123C21.1234 9.44801 20.8581 9.33947 20.5814 9.33948V9.33948Z" fill="#006987"/>
<path d="M15.943 10.6608C15.0763 10.6608 14.229 10.9147 13.5083 11.3903C12.7876 11.8659 12.226 12.5419 11.8943 13.3328C11.5626 14.1236 11.4758 14.9939 11.6449 15.8335C11.814 16.6731 12.2314 17.4444 12.8442 18.0497C13.4571 18.655 14.238 19.0672 15.0881 19.2342C15.9382 19.4012 16.8193 19.3155 17.6201 18.9879C18.4209 18.6603 19.1053 18.1056 19.5868 17.3938C20.0684 16.682 20.3254 15.8452 20.3254 14.9891C20.3241 13.8416 19.8619 12.7414 19.0404 11.93C18.2188 11.1186 17.1049 10.6621 15.943 10.6608V10.6608ZM15.943 17.7617C15.3878 17.7617 14.8451 17.5991 14.3834 17.2945C13.9218 16.9898 13.5619 16.5568 13.3495 16.0502C13.137 15.5436 13.0814 14.9861 13.1897 14.4483C13.298 13.9105 13.5653 13.4164 13.9579 13.0287C14.3505 12.6409 14.8507 12.3768 15.3952 12.2698C15.9398 12.1629 16.5042 12.2178 17.0172 12.4276C17.5301 12.6374 17.9685 12.9928 18.277 13.4488C18.5855 13.9047 18.7501 14.4408 18.7501 14.9891C18.7493 15.7242 18.4533 16.4289 17.927 16.9487C17.4008 17.4684 16.6873 17.7608 15.943 17.7617Z" fill="#006987"/>
<path d="M19.4224 23.7769H12.3178C10.9006 23.7754 9.54202 23.2187 8.53997 22.229C7.53791 21.2393 6.97426 19.8974 6.97266 18.4978V11.4805C6.97424 10.0809 7.53789 8.739 8.53995 7.74931C9.54201 6.75961 10.9006 6.20292 12.3178 6.20135H19.4224C20.8396 6.2029 22.1982 6.75959 23.2004 7.74928C24.2025 8.73897 24.7662 10.0808 24.7678 11.4805V18.4978C24.7662 19.8975 24.2024 21.2393 23.2003 22.229C22.1982 23.2187 20.8396 23.7754 19.4224 23.7769V23.7769ZM12.3178 7.8549C11.3445 7.85592 10.4114 8.23823 9.72315 8.91794C9.03493 9.59765 8.64782 10.5192 8.64675 11.4805V18.4978C8.64781 19.4591 9.03492 20.3807 9.72314 21.0604C10.4114 21.7401 11.3445 22.1225 12.3178 22.1235H19.4224C20.3957 22.1225 21.3289 21.7401 22.0171 21.0604C22.7054 20.3807 23.0925 19.4591 23.0936 18.4978V11.4805C23.0925 10.5192 22.7054 9.59763 22.0171 8.91792C21.3289 8.23822 20.3957 7.85592 19.4224 7.8549H12.3178Z" fill="#006987"/>
</svg>
