<svg width="21" height="27" viewBox="0 0 21 27" fill="none" xmlns="http://www.w3.org/2000/svg">
<path d="M12.7997 26.6628H8.03972C6.26439 26.7076 4.53048 26.1227 3.14499 25.0118C1.7595 23.9008 0.811812 22.3355 0.46972 20.5928L0.0597201 18.7328C-0.0676334 18.097 0.0278875 17.4367 0.330214 16.863C0.63254 16.2893 1.12322 15.8372 1.71972 15.5828L8.64972 12.8028C9.78682 12.3528 11.0526 12.3528 12.1897 12.8028L19.1197 15.5828C19.7189 15.8337 20.2122 16.2852 20.5151 16.8599C20.8179 17.4346 20.9115 18.0967 20.7797 18.7328L20.3697 20.5928C20.0276 22.3355 19.0799 23.9008 17.6945 25.0118C16.309 26.1228 14.5751 26.7076 12.7997 26.6628ZM10.4197 13.9628C10.0025 13.9655 9.58925 14.0434 9.19972 14.1928L2.26972 16.9728C2.00322 17.0942 1.78425 17.3002 1.64682 17.5587C1.50939 17.8173 1.46119 18.114 1.50972 18.4028L1.91972 20.2628C2.18321 21.6748 2.94502 22.9452 4.06644 23.8427C5.18787 24.7402 6.59432 25.2051 8.02972 25.1528H12.7897C14.2251 25.2051 15.6316 24.7402 16.753 23.8427C17.8744 22.9452 18.6362 21.6748 18.8997 20.2628L19.3097 18.4028C19.3582 18.114 19.3101 17.8173 19.1726 17.5587C19.0352 17.3002 18.8162 17.0942 18.5497 16.9728L11.6197 14.1928C11.2376 14.0417 10.8306 13.9637 10.4197 13.9628Z" fill="#C4AE87"/>
<path d="M10.4219 26.6645C10.2234 26.6631 10.0335 26.5836 9.89312 26.4433C9.75278 26.303 9.6733 26.113 9.67188 25.9145V13.9146C9.67188 13.7156 9.75089 13.5249 9.89155 13.3842C10.0322 13.2436 10.223 13.1646 10.4219 13.1646C10.6208 13.1646 10.8116 13.2436 10.9522 13.3842C11.0929 13.5249 11.1719 13.7156 11.1719 13.9146V25.9145C11.1704 26.113 11.091 26.303 10.9506 26.4433C10.8103 26.5836 10.6203 26.6631 10.4219 26.6645Z" fill="#C4AE87"/>
<path d="M17.4241 16.4646C17.3287 16.4625 17.2342 16.4457 17.1441 16.4145L11.6341 14.2046C10.8537 13.8946 9.98442 13.8946 9.20408 14.2046L3.69408 16.4145C3.57961 16.4587 3.45615 16.4745 3.33425 16.4605C3.21236 16.4466 3.09564 16.4034 2.99408 16.3345C2.8919 16.2668 2.80822 16.1746 2.75061 16.0663C2.69299 15.9581 2.66325 15.8372 2.66408 15.7146V11.9146C2.66444 10.9201 3.05965 9.96648 3.76283 9.2633C4.46601 8.56012 5.41963 8.16491 6.41408 8.16455H14.4141C15.4085 8.16491 16.3621 8.56012 17.0653 9.2633C17.7685 9.96648 18.1637 10.9201 18.1641 11.9146V15.7146C18.1649 15.8372 18.1352 15.9581 18.0776 16.0663C18.0199 16.1746 17.9363 16.2668 17.8341 16.3345C17.7155 16.4219 17.5713 16.4676 17.4241 16.4646ZM10.4241 12.4646C11.0304 12.4631 11.6314 12.5786 12.1941 12.8046L16.6741 14.6046V11.9146C16.6732 11.3181 16.4358 10.7463 16.0141 10.3246C15.5923 9.90279 15.0205 9.66545 14.4241 9.66455H6.42408C5.82762 9.66545 5.25584 9.90279 4.83408 10.3246C4.41232 10.7463 4.17498 11.3181 4.17408 11.9146V14.6046L8.65408 12.8046C9.21814 12.5833 9.81819 12.468 10.4241 12.4645V12.4646Z" fill="#C4AE87"/>
<path d="M12.9219 9.66455H7.92188C7.7234 9.66312 7.53347 9.58365 7.39312 9.4433C7.25278 9.30296 7.1733 9.11302 7.17188 8.91455V6.91455C7.17408 6.4511 7.35916 6.00726 7.68688 5.67955C8.01459 5.35184 8.45843 5.16676 8.92188 5.16455H11.9219C12.3853 5.16676 12.8292 5.35184 13.1569 5.67955C13.4846 6.00726 13.6697 6.4511 13.6719 6.91455V8.91455C13.6704 9.11302 13.591 9.30296 13.4506 9.4433C13.3103 9.58365 13.1203 9.66312 12.9219 9.66455ZM8.67188 8.16455H12.1719V6.91455C12.1722 6.88163 12.166 6.84898 12.1535 6.8185C12.1411 6.78802 12.1227 6.76033 12.0994 6.73705C12.0761 6.71377 12.0484 6.69537 12.0179 6.68292C11.9875 6.67047 11.9548 6.66423 11.9219 6.66455H8.92188C8.88895 6.66423 8.8563 6.67047 8.82582 6.68292C8.79534 6.69537 8.76765 6.71377 8.74438 6.73705C8.7211 6.76033 8.70269 6.78802 8.69024 6.8185C8.6778 6.84898 8.67155 6.88163 8.67188 6.91455V8.16455Z" fill="#C4AE87"/>
<path d="M18.6907 2.24548H2.15259C1.95368 2.24548 1.76291 2.16647 1.62226 2.02581C1.48161 1.88516 1.40259 1.6944 1.40259 1.49548C1.40259 1.29657 1.48161 1.10581 1.62226 0.965153C1.76291 0.824501 1.95368 0.745483 2.15259 0.745483H18.6907C18.8896 0.745483 19.0804 0.824501 19.221 0.965153C19.3617 1.10581 19.4407 1.29657 19.4407 1.49548C19.4407 1.6944 19.3617 1.88516 19.221 2.02581C19.0804 2.16647 18.8896 2.24548 18.6907 2.24548Z" fill="#C4AE87"/>
<path d="M2.59 2.992L0 1.496L2.59 0V2.992Z" fill="#C4AE87"/>
<path d="M18.2531 2.992L20.8431 1.496L18.2531 0V2.992Z" fill="#C4AE87"/>
</svg>
