<svg width="444" height="111" viewBox="0 0 444 111" fill="none" xmlns="http://www.w3.org/2000/svg">
<path d="M351.805 75.7493C355.454 81.049 360.571 84.0393 366.939 84.8921C372.832 85.679 378.329 84.592 383.355 81.3638C384.094 80.888 384.83 80.3976 385.529 79.8632C386.231 79.3288 386.257 79.0031 385.818 78.2674C385.492 77.7221 385.192 77.1584 384.87 76.6094C384.13 75.354 383.409 74.0876 382.634 72.8542C382.033 71.9026 381.576 71.8184 380.708 72.4955C380.317 72.7993 379.888 73.0189 379.468 73.2605C375.42 75.5846 371.163 76.4374 366.57 75.1491C363.184 74.2011 360.849 72.049 359.261 69.0075C358.686 67.9058 358.847 67.6936 360.077 67.6936C364.465 67.6936 368.853 67.6936 373.242 67.6936C373.242 67.7009 373.242 67.7045 373.242 67.7119C377.447 67.7119 381.653 67.7119 385.858 67.7119C387.794 67.7119 388.014 67.5179 388.237 65.5781C388.252 65.4573 388.255 65.3365 388.263 65.2157C388.398 62.8147 388.365 60.4394 387.93 58.0457C387.366 54.9493 386.165 52.197 384.193 49.7667C381.759 46.7655 378.6 44.9025 374.911 43.8155C372.459 43.0944 369.97 43.0469 367.481 43.2116C364.055 43.4385 360.889 44.5585 357.972 46.3885C355.051 48.2222 352.775 50.6524 351.033 53.6134C349.975 55.4141 349.243 57.3503 348.826 59.3706C348.258 62.1157 348.086 64.8644 348.606 67.6936C349.151 70.6179 350.14 73.33 351.805 75.7493ZM358.938 59.2389C361.058 53.639 366.065 51.0989 371.573 52.5007C374.322 53.1998 375.866 54.6272 376.953 56.9367C377.286 57.6431 377.477 58.2653 377.689 59.0229C377.802 59.4219 377.564 59.8428 377.173 59.9123C376.876 59.9672 376.569 59.9782 376.269 59.9782C373.593 59.9819 362.822 59.9965 360.117 59.9965C359.813 59.9965 359.506 60.0221 359.22 59.8904C358.927 59.7623 358.818 59.5683 358.938 59.2389Z" fill="#ECF4FA"/>
<path d="M248.793 43.8041C246.264 43.8077 243.735 43.8187 241.206 43.8077C239.698 43.8004 239.515 43.9505 239.515 45.4584C239.511 57.7745 239.511 70.0941 239.515 82.4102C239.515 83.6143 239.808 83.8925 241.045 83.8925C243.636 83.8925 246.224 83.8888 248.815 83.8925C250.162 83.8925 250.407 83.6546 250.407 82.2967C250.407 76.1515 250.407 70.01 250.407 63.8648H250.411C250.411 57.7196 250.411 51.578 250.411 45.4328C250.411 43.9688 250.239 43.8041 248.793 43.8041Z" fill="#ECF4FA"/>
<path d="M305.147 77.0926C308.517 81.3419 312.939 83.8784 318.282 84.8153C319.64 85.0532 321.013 85.0642 322.382 85.0679C326.488 85.0789 330.236 83.8674 333.662 81.6494C336.762 79.6437 339.152 77.0085 340.843 73.7034C342.285 70.8925 343.127 67.9279 343.174 64.7986C343.259 59.4476 343.229 48.7383 343.244 48.7383C343.244 43.0799 343.244 37.4215 343.244 31.7667C343.244 30.8737 343.021 30.5918 342.128 30.5845C339.203 30.5626 336.275 30.5626 333.351 30.5955C332.469 30.6065 332.267 30.8993 332.267 31.7997C332.275 35.9977 332.282 40.1958 332.282 44.3938C332.282 45.393 332.011 45.5614 331.14 45.0929C329.321 44.1193 327.381 43.4898 325.346 43.2446C320.815 42.6993 316.412 43.0799 312.269 45.21C308.345 47.2267 305.22 50.0816 303.155 53.9868C301.208 57.6725 300.502 61.6107 300.82 65.7904C301.153 70.0105 302.526 73.7913 305.147 77.0926ZM313.521 57.4199C315.801 53.7453 320.639 52.0799 324.79 53.4671C328.34 54.6566 330.492 57.1015 331.62 60.5932C331.989 61.7388 332.194 62.888 332.169 64.1032C331.96 68.4037 330.357 71.9356 326.36 73.9999C324.025 75.2077 321.503 75.3761 318.981 74.6551C315.19 73.568 312.964 70.984 312.013 67.2032C311.131 63.7189 311.639 60.4578 313.521 57.4199Z" fill="#ECF4FA"/>
<path d="M259.627 83.9038C262.218 83.9074 264.806 83.9038 267.397 83.9074C268.879 83.9074 269.099 83.6951 269.099 82.2348C269.103 74.9989 269.106 67.7593 269.103 60.5234C269.099 57.1159 270.955 54.5027 273.824 53.4742C276.682 52.4494 279.34 52.8227 281.711 54.7223C283.659 56.2815 284.358 58.4482 284.365 60.8565C284.383 68.0631 284.369 75.2697 284.372 82.4764C284.372 83.7464 284.53 83.9111 285.778 83.9148C288.336 83.9221 290.894 83.9184 293.456 83.9184C294.847 83.9184 295.016 83.7537 295.019 82.3336C295.023 78.5931 295.019 74.8525 295.019 71.1119C295.019 67.9204 294.957 64.7252 295.034 61.5336C295.125 57.6869 294.258 54.1403 292.168 50.8902C289.957 47.4534 286.861 45.2208 283.014 43.8995C280.474 43.0284 277.868 42.9882 275.248 43.0687C270.775 43.2078 266.852 44.7962 263.645 47.9036C259.985 51.4502 258.335 55.9411 258.262 60.9517C258.159 68.1583 258.232 75.3649 258.24 82.5715C258.232 83.6073 258.562 83.9038 259.627 83.9038Z" fill="#ECF4FA"/>
<path d="M231.078 26.4263C230.91 24.8489 230.811 24.7208 229.23 24.7171C226.181 24.7061 223.136 24.7134 220.087 24.7244C218.74 24.7281 218.557 24.8964 218.89 26.2214C219.586 29.0067 219.593 31.8542 219.597 34.6797C219.604 38.7424 219.029 42.7428 218.06 46.703C217.361 49.5615 216.489 52.3577 215.421 55.0918C214.206 58.2065 212.687 61.1821 210.93 64.0259C210.187 65.2301 209.345 66.3757 208.547 67.5432C208.339 67.847 208.177 68.019 207.826 67.9532C207.46 67.8836 207.317 67.5139 207.251 67.2248C207.189 66.9613 207.149 66.6941 207.072 66.4342C206.062 62.9718 195.942 28.1575 195.126 25.6541C194.91 24.9953 194.533 24.7354 193.867 24.7354C193.856 24.7354 193.848 24.7354 193.837 24.7354C193.64 24.7208 193.409 24.7134 193.124 24.7134C190.075 24.7025 187.03 24.7098 183.981 24.7208C183.428 24.7208 183.073 24.7537 182.868 24.8781C182.857 24.8855 182.843 24.8928 182.832 24.9001C182.824 24.9038 182.821 24.9111 182.813 24.9147C182.565 25.0868 182.557 25.4198 182.685 26.0603C182.685 26.0603 182.773 26.3531 182.927 26.8838C183.469 29.4569 183.483 32.0738 183.491 34.6761C183.498 38.7387 182.923 42.7391 181.953 46.6993C181.262 49.5615 180.39 52.3541 179.325 55.0881C178.11 58.2028 176.591 61.1784 174.835 64.0223C174.092 65.2264 173.25 66.372 172.452 67.5396C172.243 67.8434 172.082 68.0154 171.731 67.9495C171.365 67.88 171.222 67.5103 171.156 67.2211C171.094 66.9576 171.054 66.6904 170.977 66.4306C169.97 62.9718 159.85 28.1575 159.034 25.6541C158.818 24.9953 158.441 24.7354 157.775 24.7354C154.39 24.7464 151 24.7244 147.615 24.75C146.528 24.761 146.381 24.9843 146.597 26.0603C146.597 26.0603 162.174 78.9882 163.207 82.5531C163.543 83.7133 163.785 83.8816 165.018 83.8853C167.255 83.8926 169.487 83.8633 171.723 83.8999C172.595 83.9146 173.327 83.6328 173.963 83.1021C176.566 80.9353 178.974 78.5782 181.111 75.9503C184.124 72.2391 186.561 68.1654 188.64 63.8722C189.8 61.4712 190.789 58.997 191.645 56.4753C195.32 68.9706 198.833 80.9207 199.306 82.5531C199.642 83.7133 199.884 83.8816 201.117 83.8853C203.354 83.8926 205.586 83.8633 207.822 83.8999C208.694 83.9146 209.426 83.6328 210.062 83.1021C212.665 80.9353 215.073 78.5782 217.21 75.9503C220.223 72.2391 222.66 68.1654 224.739 63.8722C225.962 61.3504 226.994 58.7408 227.879 56.091C228.659 53.7559 229.252 51.3622 229.834 48.9649C230.873 44.6716 231.313 40.3162 231.547 35.9315C231.712 32.7509 231.415 29.585 231.078 26.4263Z" fill="#ECF4FA"/>
<path d="M245.041 38.1278C249.005 38.1241 252.149 34.8045 251.93 31.5068C252.149 27.9016 248.804 24.7101 245.071 24.7101C241.121 24.7101 238.021 27.7369 237.985 31.5214C237.956 34.7898 240.884 38.1351 245.041 38.1278Z" fill="#ECF4FA"/>
<path d="M428.025 51.4284C425.562 47.1425 421.81 44.4963 417.093 43.4532C412.763 42.4942 408.389 42.6004 404.191 44.4341C400.575 46.0115 397.815 48.5187 395.916 51.9335C394.272 54.8871 393.61 58.1153 393.613 61.4825C393.613 67.1409 393.606 81.3126 393.628 82.74C393.643 83.6807 393.924 83.9954 394.803 84.0027C397.698 84.021 400.593 84.0101 403.488 84.021C404.044 84.0247 404.348 83.7575 404.443 83.2451C404.502 82.9194 404.535 68.4403 404.535 61.5374C404.535 60.4394 404.656 59.3817 404.912 58.2983C405.633 55.2568 408.565 53.4048 411.075 53.1083C412.452 52.9473 413.791 53.1047 415.101 53.6427C416.69 54.2942 417.868 55.3483 418.736 56.805C419.256 57.6761 419.464 58.6094 419.548 59.561C419.585 59.9782 419.929 60.3003 420.35 60.3003H429.764C430.236 60.3003 430.602 59.8977 430.569 59.4292C430.346 56.589 429.471 53.9428 428.025 51.4284Z" fill="#ECF4FA"/>
<path d="M437.077 85.5473C441.041 85.5437 444.185 82.224 443.965 78.9263C444.185 75.3212 440.84 72.1296 437.107 72.1296C433.157 72.1296 430.057 75.1565 430.021 78.941C429.991 82.2094 432.919 85.5547 437.077 85.5473Z" fill="#C4AE87"/>
<rect x="0.0544434" width="111" height="111" rx="7" fill="#ECF4FA"/>
<path d="M49.6103 66.1013C51.4855 61.2866 53.8386 56.6891 56.5465 52.2942C57.6977 50.4335 58.9937 48.6669 60.2245 46.8568C60.5431 46.3862 60.7965 46.1256 61.3395 46.2197C61.9042 46.3283 62.1214 46.9003 62.23 47.3492C62.3242 47.7546 62.3893 48.1673 62.5052 48.5728C62.9903 50.2308 64.8293 56.5515 67.1679 64.5954C67.4719 65.6235 68.5652 66.1955 69.5861 65.8624C74.2488 64.3347 79.1142 63.0677 84.11 62.2061C84.986 62.0541 85.5363 61.1852 85.2901 60.3309C80.0193 42.3969 75.2045 26.0267 74.5239 23.6664C74.0026 21.8781 73.6261 21.6174 71.7292 21.6102C68.2684 21.5885 64.8148 21.6391 61.3612 21.5812C60.0145 21.5595 58.885 21.9939 57.9004 22.8121C53.8821 26.157 50.1533 29.8061 46.859 33.8679C42.2036 39.6021 38.4387 45.9011 35.224 52.5332C33.3343 56.4356 31.7342 60.4612 30.3658 64.5592C29.1639 68.1648 28.2444 71.8646 27.3466 75.5716C26.4633 79.2206 25.8624 82.9059 25.4352 86.6056C25.2904 87.8944 26.7602 88.727 27.7955 87.9523C30.9595 85.5848 36.7372 81.494 44.2888 77.2151C45.5703 76.4911 46.5332 75.3037 46.9532 73.8918C47.7351 71.2564 48.6112 68.6644 49.6103 66.1013Z" fill="#006987"/>
</svg>
