<svg width="109" height="23" viewBox="0 0 109 23" fill="none" xmlns="http://www.w3.org/2000/svg">
<path d="M78.1365 19.4268C79.5254 21.4439 81.4729 22.582 83.8968 22.9066C86.1396 23.2061 88.2319 22.7924 90.1446 21.5637C90.426 21.3826 90.706 21.1959 90.9721 20.9925C91.2395 20.7892 91.2493 20.6652 91.0821 20.3852C90.9581 20.1776 90.8439 19.9631 90.7213 19.7541C90.4399 19.2763 90.1655 18.7943 89.8702 18.3249C89.6417 17.9627 89.4676 17.9306 89.1374 18.1883C88.9884 18.304 88.8254 18.3875 88.6652 18.4795C87.1245 19.3641 85.5043 19.6887 83.7561 19.1983C82.4675 18.8375 81.5787 18.0184 80.9742 16.8608C80.7554 16.4415 80.8167 16.3607 81.2848 16.3607C82.9551 16.3607 84.6253 16.3607 86.2956 16.3607C86.2956 16.3634 86.2956 16.3648 86.2956 16.3676C87.8962 16.3676 89.4968 16.3676 91.0974 16.3676C91.8344 16.3676 91.918 16.2938 92.0029 15.5555C92.0085 15.5095 92.0099 15.4635 92.0127 15.4176C92.0642 14.5037 92.0517 13.5996 91.8859 12.6886C91.6714 11.5101 91.2145 10.4625 90.4636 9.5375C89.5372 8.39519 88.335 7.68613 86.9308 7.2724C85.9975 6.99797 85.0502 6.97986 84.1029 7.04254C82.799 7.12891 81.5941 7.55519 80.4838 8.25171C79.3721 8.94963 78.5057 9.87461 77.8426 11.0016C77.44 11.687 77.1614 12.4239 77.0026 13.1929C76.7866 14.2376 76.7212 15.2838 76.919 16.3607C77.1265 17.4737 77.5027 18.506 78.1365 19.4268ZM80.8516 13.1427C81.6581 11.0113 83.5638 10.0446 85.6604 10.5781C86.7065 10.8442 87.2944 11.3875 87.7082 12.2665C87.8349 12.5353 87.9074 12.7722 87.9882 13.0605C88.0313 13.2124 87.9408 13.3726 87.7917 13.399C87.6789 13.4199 87.5619 13.4241 87.4477 13.4241C86.4293 13.4255 82.3296 13.4311 81.3001 13.4311C81.1845 13.4311 81.0675 13.4408 80.9588 13.3907C80.8474 13.3419 80.8056 13.2681 80.8516 13.1427Z" fill="white"/>
<path d="M38.9291 7.26822C37.9665 7.26961 37.0039 7.27379 36.0413 7.26961C35.4674 7.26683 35.3977 7.32394 35.3977 7.89788C35.3963 12.5855 35.3963 17.2745 35.3977 21.9621C35.3977 22.4204 35.5092 22.5263 35.98 22.5263C36.9663 22.5263 37.9512 22.5249 38.9375 22.5263C39.4501 22.5263 39.5434 22.4358 39.5434 21.9189C39.5434 19.58 39.5434 17.2425 39.5434 14.9035H39.5448C39.5448 12.5646 39.5448 10.2271 39.5448 7.88813C39.5448 7.33091 39.4794 7.26822 38.9291 7.26822Z" fill="white"/>
<path d="M60.3779 19.938C61.6609 21.5554 63.3437 22.5207 65.3775 22.8774C65.8944 22.9679 66.4168 22.9721 66.9378 22.9735C68.5008 22.9777 69.9272 22.5166 71.2311 21.6724C72.411 20.909 73.3207 19.906 73.9643 18.6481C74.5132 17.5782 74.8336 16.4498 74.8517 15.2588C74.8837 13.2221 74.8726 9.14607 74.8781 9.14607C74.8781 6.99241 74.8781 4.83876 74.8781 2.68649C74.8781 2.34659 74.7932 2.23932 74.4533 2.23654C73.3402 2.22818 72.2258 2.22818 71.1127 2.24072C70.777 2.2449 70.7004 2.35634 70.7004 2.69903C70.7032 4.29686 70.706 5.89469 70.706 7.49252C70.706 7.87282 70.6029 7.9369 70.2713 7.75859C69.579 7.38804 68.8407 7.14843 68.0661 7.0551C66.3415 6.84753 64.6657 6.99241 63.0888 7.80317C61.5954 8.57074 60.4057 9.65732 59.6201 11.1437C58.879 12.5465 58.6101 14.0454 58.7313 15.6363C58.8581 17.2425 59.3805 18.6815 60.3779 19.938ZM63.5652 12.4504C64.433 11.0518 66.2747 10.4179 67.8544 10.9459C69.2056 11.3986 70.0248 12.3292 70.4538 13.6582C70.5945 14.0942 70.6725 14.5316 70.6628 14.9941C70.5834 16.6309 69.9732 17.9752 68.452 18.7609C67.5632 19.2206 66.6034 19.2847 65.6436 19.0103C64.2004 18.5965 63.3534 17.613 62.9912 16.174C62.6555 14.8478 62.8491 13.6066 63.5652 12.4504Z" fill="white"/>
<path d="M43.0525 22.5305C44.0388 22.5319 45.0237 22.5305 46.01 22.5319C46.5741 22.5319 46.6577 22.4511 46.6577 21.8953C46.6591 19.1412 46.6605 16.3858 46.6591 13.6317C46.6577 12.3348 47.364 11.3401 48.4562 10.9487C49.5441 10.5586 50.5555 10.7007 51.4582 11.4237C52.1993 12.0171 52.4654 12.8418 52.4681 13.7585C52.4751 16.5014 52.4695 19.2443 52.4709 21.9872C52.4709 22.4706 52.5308 22.5333 53.0059 22.5347C53.9796 22.5375 54.9533 22.5361 55.9285 22.5361C56.4578 22.5361 56.5219 22.4734 56.5233 21.9329C56.5247 20.5092 56.5233 19.0855 56.5233 17.6618C56.5233 16.447 56.4996 15.2309 56.5289 14.0162C56.5637 12.5521 56.2336 11.2022 55.4381 9.96518C54.5967 8.65711 53.4182 7.80735 51.9541 7.30446C50.9873 6.97291 49.9955 6.95759 48.9981 6.98823C47.2957 7.04117 45.8024 7.64575 44.5821 8.82845C43.189 10.1783 42.5608 11.8876 42.5329 13.7947C42.4939 16.5376 42.5218 19.2805 42.5246 22.0234C42.5218 22.4177 42.6471 22.5305 43.0525 22.5305Z" fill="white"/>
<path d="M32.1867 0.654015C32.1227 0.0536102 32.085 0.00485342 31.4832 0.00346037C30.3228 -0.000718785 29.1638 0.00206732 28.0034 0.00624647C27.4908 0.00763952 27.4211 0.0717199 27.5479 0.576004C27.8126 1.63612 27.8153 2.71991 27.8167 3.79534C27.8195 5.34163 27.6008 6.86423 27.2316 8.37151C26.9656 9.45949 26.634 10.5238 26.2273 11.5644C25.7648 12.7499 25.1867 13.8824 24.518 14.9648C24.2352 15.4231 23.9148 15.8592 23.6111 16.3035C23.5317 16.4192 23.4704 16.4846 23.3367 16.4596C23.1974 16.4331 23.143 16.2924 23.118 16.1823C23.0943 16.082 23.079 15.9804 23.0497 15.8814C22.6652 14.5636 18.8134 1.31293 18.5028 0.360081C18.4206 0.109332 18.2771 0.0104256 18.0236 0.0104256C18.0194 0.0104256 18.0166 0.0104256 18.0124 0.0104256C17.9372 0.00485342 17.8495 0.00206732 17.7408 0.00206732C16.5804 -0.00211184 15.4214 0.000674265 14.261 0.00485342C14.0506 0.00485342 13.9155 0.0173909 13.8375 0.0647546C13.8333 0.0675407 13.8277 0.0703268 13.8235 0.0731129C13.8208 0.0745059 13.8194 0.077292 13.8166 0.0786851C13.7218 0.144158 13.7191 0.270926 13.7678 0.51471C13.7678 0.51471 13.8013 0.626154 13.8598 0.828146C14.0659 1.80746 14.0715 2.80349 14.0743 3.79395C14.0771 5.34024 13.8584 6.86284 13.4892 8.37012C13.2259 9.45949 12.8944 10.5224 12.489 11.563C12.0265 12.7485 11.4484 13.881 10.7797 14.9634C10.4969 15.4217 10.1765 15.8578 9.87285 16.3021C9.79345 16.4178 9.73215 16.4832 9.59842 16.4582C9.45912 16.4317 9.40479 16.291 9.37971 16.181C9.35603 16.0807 9.34071 15.979 9.31145 15.8801C8.92836 14.5636 5.07658 1.31293 4.76593 0.360081C4.68374 0.109332 4.54026 0.0104256 4.28672 0.0104256C2.99815 0.0146048 1.70819 0.00624647 0.419614 0.0159978C0.00587799 0.020177 -0.049844 0.105153 0.0323459 0.51471C0.0323459 0.51471 5.96117 20.6596 6.35401 22.0164C6.48217 22.458 6.57411 22.5221 7.04357 22.5235C7.89472 22.5263 8.74448 22.5152 9.59563 22.5291C9.92718 22.5347 10.2058 22.4274 10.4482 22.2254C11.4386 21.4007 12.3553 20.5036 13.1688 19.5034C14.3153 18.0908 15.2431 16.5404 16.0343 14.9063C16.4759 13.9925 16.852 13.0508 17.178 12.091C18.5766 16.8468 19.914 21.3951 20.0937 22.0164C20.2218 22.458 20.3138 22.5221 20.7832 22.5235C21.6344 22.5263 22.4841 22.5152 23.3353 22.5291C23.6668 22.5347 23.9454 22.4274 24.1878 22.2254C25.1783 21.4007 26.0949 20.5036 26.9085 19.5034C28.0549 18.0908 28.9827 16.5404 29.774 14.9063C30.2392 13.9465 30.6321 12.9533 30.9692 11.9447C31.2659 11.0559 31.4916 10.1449 31.7131 9.23242C32.1087 7.59837 32.2759 5.94064 32.365 4.27177C32.4277 3.06121 32.3149 1.85622 32.1867 0.654015Z" fill="white"/>
<path d="M37.5012 5.10759C39.0099 5.1062 40.2065 3.8427 40.1229 2.58757C40.2065 1.21541 38.9333 0.000671387 37.5124 0.000671387C36.0093 0.000671387 34.8294 1.15272 34.8154 2.59314C34.8043 3.83713 35.9187 5.11038 37.5012 5.10759Z" fill="white"/>
<path d="M107.147 10.1699C106.209 8.53868 104.781 7.5315 102.986 7.13448C101.338 6.7695 99.673 6.8099 98.0752 7.50782C96.6989 8.10823 95.6485 9.06246 94.9255 10.3622C94.3 11.4864 94.0479 12.715 94.0493 13.9966C94.0493 16.1503 94.0465 21.5442 94.0549 22.0875C94.0604 22.4455 94.1677 22.5653 94.502 22.5681C95.6039 22.5751 96.7058 22.5709 97.8077 22.5751C98.0195 22.5764 98.1351 22.4748 98.1713 22.2797C98.1936 22.1557 98.2062 16.6448 98.2062 14.0175C98.2062 13.5996 98.2521 13.197 98.3496 12.7847C98.6241 11.6271 99.7399 10.9222 100.696 10.8093C101.219 10.7481 101.729 10.808 102.228 11.0127C102.832 11.2607 103.281 11.6619 103.611 12.2163C103.809 12.5479 103.888 12.9031 103.92 13.2653C103.934 13.4241 104.065 13.5467 104.226 13.5467H107.808C107.988 13.5467 108.127 13.3935 108.115 13.2151C108.03 12.1341 107.697 11.127 107.147 10.1699Z" fill="white"/>
</svg>
