<svg width="285" height="150" viewBox="0 0 285 150" fill="none" xmlns="http://www.w3.org/2000/svg">
<path d="M196.68 139.9C200.176 144.977 205.078 147.842 211.179 148.659C216.825 149.413 222.091 148.371 226.906 145.279C227.614 144.823 228.319 144.353 228.989 143.841C229.662 143.329 229.686 143.017 229.266 142.312C228.954 141.79 228.666 141.25 228.357 140.724C227.649 139.521 226.958 138.308 226.215 137.126C225.64 136.214 225.202 136.134 224.371 136.782C223.995 137.073 223.585 137.284 223.182 137.515C219.304 139.742 215.226 140.559 210.825 139.325C207.581 138.416 205.344 136.355 203.823 133.441C203.272 132.385 203.426 132.182 204.604 132.182C208.809 132.182 213.013 132.182 217.217 132.182C217.217 132.189 217.217 132.192 217.217 132.199C221.246 132.199 225.275 132.199 229.304 132.199C231.159 132.199 231.37 132.014 231.583 130.155C231.597 130.039 231.601 129.924 231.608 129.808C231.738 127.508 231.706 125.232 231.289 122.939C230.749 119.972 229.599 117.335 227.709 115.007C225.377 112.132 222.351 110.347 218.816 109.306C216.467 108.615 214.083 108.569 211.698 108.727C208.416 108.944 205.383 110.017 202.588 111.771C199.79 113.527 197.609 115.856 195.94 118.692C194.927 120.418 194.225 122.273 193.826 124.208C193.282 126.838 193.117 129.471 193.615 132.182C194.138 134.984 195.084 137.582 196.68 139.9ZM203.514 124.082C205.544 118.717 210.341 116.283 215.618 117.626C218.252 118.296 219.731 119.664 220.773 121.876C221.092 122.553 221.274 123.149 221.478 123.875C221.586 124.257 221.358 124.66 220.983 124.727C220.699 124.78 220.405 124.79 220.117 124.79C217.554 124.794 207.234 124.808 204.643 124.808C204.352 124.808 204.057 124.832 203.784 124.706C203.503 124.583 203.398 124.398 203.514 124.082Z" fill="#006987"/>
<path d="M97.9896 109.295C95.5666 109.299 93.1437 109.309 90.7207 109.299C89.276 109.292 89.1007 109.435 89.1007 110.88C89.0972 122.679 89.0972 134.482 89.1007 146.282C89.1007 147.435 89.3812 147.702 90.5664 147.702C93.049 147.702 95.5281 147.698 98.0107 147.702C99.3011 147.702 99.536 147.474 99.536 146.173C99.536 140.285 99.536 134.402 99.536 128.514H99.5395C99.5395 122.627 99.5395 116.743 99.5395 110.855C99.5395 109.453 99.3747 109.295 97.9896 109.295Z" fill="#006987"/>
<path d="M151.979 141.187C155.209 145.258 159.444 147.688 164.564 148.585C165.865 148.813 167.18 148.824 168.491 148.827C172.425 148.838 176.016 147.677 179.298 145.552C182.268 143.631 184.558 141.106 186.178 137.94C187.559 135.247 188.366 132.406 188.411 129.408C188.492 124.282 188.464 114.022 188.478 114.022C188.478 108.601 188.478 103.18 188.478 97.7622C188.478 96.9067 188.264 96.6367 187.409 96.6296C184.607 96.6086 181.802 96.6086 179 96.6402C178.155 96.6507 177.962 96.9312 177.962 97.7938C177.969 101.816 177.976 105.838 177.976 109.86C177.976 110.817 177.717 110.978 176.882 110.529C175.139 109.597 173.281 108.994 171.331 108.759C166.99 108.236 162.772 108.601 158.803 110.642C155.044 112.574 152.049 115.309 150.071 119.05C148.206 122.581 147.529 126.354 147.834 130.359C148.153 134.402 149.468 138.024 151.979 141.187ZM160.002 122.339C162.186 118.819 166.822 117.223 170.798 118.552C174.2 119.692 176.261 122.034 177.341 125.379C177.696 126.477 177.892 127.578 177.867 128.742C177.668 132.862 176.132 136.246 172.303 138.224C170.066 139.381 167.65 139.542 165.234 138.851C161.601 137.81 159.469 135.334 158.557 131.712C157.712 128.374 158.2 125.25 160.002 122.339Z" fill="#006987"/>
<path d="M108.369 147.712C110.851 147.716 113.33 147.712 115.813 147.716C117.233 147.716 117.444 147.512 117.444 146.113C117.447 139.181 117.451 132.245 117.447 125.313C117.444 122.048 119.221 119.545 121.97 118.559C124.709 117.577 127.255 117.935 129.527 119.755C131.392 121.249 132.062 123.325 132.069 125.632C132.087 132.536 132.073 139.44 132.076 146.345C132.076 147.561 132.227 147.719 133.423 147.723C135.874 147.73 138.325 147.726 140.779 147.726C142.112 147.726 142.273 147.568 142.277 146.208C142.28 142.624 142.277 139.041 142.277 135.457C142.277 132.399 142.217 129.338 142.291 126.281C142.378 122.595 141.547 119.197 139.545 116.084C137.427 112.791 134.461 110.652 130.775 109.386C128.342 108.552 125.845 108.513 123.335 108.59C119.05 108.724 115.291 110.245 112.219 113.222C108.712 116.62 107.131 120.923 107.061 125.723C106.963 132.627 107.033 139.532 107.04 146.436C107.033 147.428 107.348 147.712 108.369 147.712Z" fill="#006987"/>
<path d="M81.0182 92.6462C80.8569 91.1349 80.7622 91.0122 79.2474 91.0087C76.3265 90.9982 73.4091 91.0052 70.4882 91.0157C69.1978 91.0192 69.0225 91.1805 69.3416 92.4499C70.0078 95.1183 70.0148 97.8464 70.0183 100.553C70.0254 104.446 69.4748 108.278 68.5456 112.072C67.8759 114.811 67.0413 117.49 66.0174 120.109C64.8533 123.093 63.3981 125.944 61.715 128.668C61.0032 129.822 60.1967 130.92 59.4323 132.038C59.2324 132.329 59.0781 132.494 58.7415 132.431C58.3908 132.364 58.2541 132.01 58.191 131.733C58.1314 131.481 58.0928 131.225 58.0191 130.976C57.0514 127.659 47.3559 94.3048 46.574 91.9064C46.3671 91.2752 46.0059 91.0262 45.3677 91.0262C45.3572 91.0262 45.3502 91.0262 45.3397 91.0262C45.1503 91.0122 44.9294 91.0052 44.6559 91.0052C41.735 90.9947 38.8176 91.0017 35.8967 91.0122C35.3672 91.0122 35.0271 91.0438 34.8307 91.163C34.8202 91.17 34.8062 91.177 34.7957 91.184C34.7887 91.1875 34.7851 91.1946 34.7781 91.1981C34.5397 91.3629 34.5327 91.682 34.6554 92.2956C34.6554 92.2956 34.7396 92.5761 34.8868 93.0846C35.4058 95.5496 35.4198 98.0568 35.4268 100.55C35.4338 104.442 34.8833 108.275 33.9541 112.069C33.2914 114.811 32.4568 117.486 31.4364 120.106C30.2723 123.09 28.8171 125.94 27.134 128.665C26.4222 129.819 25.6157 130.916 24.8513 132.035C24.6514 132.326 24.4971 132.49 24.1605 132.427C23.8098 132.361 23.6731 132.007 23.61 131.73C23.5504 131.477 23.5118 131.221 23.4381 130.972C22.4739 127.659 12.7784 94.3048 11.9965 91.9064C11.7896 91.2752 11.4284 91.0262 10.7902 91.0262C7.54674 91.0368 4.29973 91.0157 1.05622 91.0403C0.0147957 91.0508 -0.125464 91.2647 0.081419 92.2956C0.081419 92.2956 15.005 143.003 15.9939 146.418C16.3165 147.53 16.5479 147.691 17.7296 147.695C19.872 147.702 22.011 147.674 24.1535 147.709C24.988 147.723 25.6893 147.453 26.2994 146.944C28.7926 144.868 31.0998 142.61 33.1476 140.093C36.0335 136.537 38.3688 132.634 40.3605 128.521C41.472 126.221 42.4188 123.85 43.2393 121.435C46.7598 133.406 50.126 144.854 50.5784 146.418C50.901 147.53 51.1324 147.691 52.3141 147.695C54.4566 147.702 56.5955 147.674 58.738 147.709C59.5725 147.723 60.2738 147.453 60.8839 146.944C63.3771 144.868 65.6843 142.61 67.7321 140.093C70.618 136.537 72.9533 132.634 74.945 128.521C76.1161 126.105 77.105 123.605 77.9535 121.066C78.7004 118.829 79.2685 116.536 79.826 114.239C80.8218 110.126 81.2426 105.953 81.467 101.753C81.6248 98.7055 81.3408 95.6723 81.0182 92.6462Z" fill="#006987"/>
<path d="M94.3955 103.857C98.193 103.853 101.205 100.673 100.995 97.5133C101.205 94.0594 98.0001 91.0018 94.4235 91.0018C90.64 91.0018 87.67 93.9016 87.635 97.5273C87.6069 100.659 90.4121 103.864 94.3955 103.857Z" fill="#006987"/>
<path d="M269.702 116.599C267.343 112.493 263.748 109.958 259.228 108.958C255.08 108.04 250.89 108.141 246.868 109.898C243.404 111.409 240.76 113.811 238.94 117.083C237.366 119.913 236.731 123.005 236.734 126.231C236.734 131.652 236.727 145.23 236.748 146.597C236.762 147.498 237.032 147.8 237.874 147.807C240.648 147.824 243.421 147.814 246.195 147.824C246.728 147.828 247.019 147.572 247.11 147.081C247.166 146.769 247.198 132.897 247.198 126.284C247.198 125.232 247.313 124.219 247.559 123.181C248.25 120.267 251.058 118.493 253.464 118.209C254.782 118.054 256.066 118.205 257.321 118.721C258.843 119.345 259.972 120.355 260.803 121.75C261.301 122.585 261.501 123.479 261.581 124.391C261.616 124.79 261.946 125.099 262.349 125.099H271.368C271.82 125.099 272.171 124.713 272.139 124.264C271.925 121.543 271.087 119.008 269.702 116.599Z" fill="#006987"/>
<path d="M278.375 149.287C282.172 149.283 285.184 146.103 284.974 142.943C285.184 139.489 281.979 136.432 278.403 136.432C274.619 136.432 271.649 139.332 271.614 142.957C271.586 146.089 274.391 149.294 278.375 149.287Z" fill="#C4AE87"/>
<rect x="99" width="69" height="69" rx="9" fill="#006987"/>
<path d="M129.805 41.0901C130.971 38.0971 132.433 35.2392 134.117 32.5073C134.832 31.3506 135.638 30.2524 136.403 29.1273C136.601 28.8347 136.759 28.6727 137.096 28.7312C137.447 28.7987 137.582 29.1543 137.65 29.4333C137.708 29.6853 137.749 29.9419 137.821 30.1939C138.122 31.2246 139.266 35.1537 140.719 40.1539C140.908 40.793 141.588 41.1486 142.222 40.9415C145.121 39.9919 148.145 39.2043 151.251 38.6687C151.795 38.5742 152.137 38.0341 151.984 37.503C148.708 26.3548 145.715 16.1788 145.292 14.7116C144.968 13.5999 144.734 13.4379 143.555 13.4334C141.403 13.4199 139.257 13.4514 137.11 13.4154C136.273 13.4019 135.57 13.6719 134.958 14.1805C132.46 16.2598 130.143 18.5282 128.095 21.053C125.201 24.6176 122.861 28.5332 120.862 32.6558C119.688 35.0816 118.693 37.584 117.842 40.1314C117.095 42.3727 116.524 44.6726 115.965 46.9769C115.416 49.2453 115.043 51.5361 114.777 53.836C114.687 54.6371 115.601 55.1547 116.245 54.6731C118.211 53.2014 121.803 50.6585 126.497 47.9986C127.294 47.5485 127.892 46.8104 128.153 45.9328C128.639 44.2945 129.184 42.6833 129.805 41.0901Z" fill="#ECF4FA"/>
</svg>
