<svg width="22" height="32" viewBox="0 0 22 32" fill="none" xmlns="http://www.w3.org/2000/svg">
<path d="M18.9688 30.8984H2.43164C2.23273 30.8984 2.04196 30.8194 1.90131 30.6788C1.76066 30.5381 1.68164 30.3473 1.68164 30.1484C1.68164 29.9495 1.76066 29.7588 1.90131 29.6181C2.04196 29.4775 2.23273 29.3984 2.43164 29.3984H18.9688C19.1677 29.3984 19.3584 29.4775 19.4991 29.6181C19.6397 29.7588 19.7188 29.9495 19.7188 30.1484C19.7188 30.3473 19.6397 30.5381 19.4991 30.6788C19.3584 30.8194 19.1677 30.8984 18.9688 30.8984Z" fill="#C4AE87"/>
<path d="M2.86905 31.6442L0.279053 30.1492L2.86905 28.6532V31.6442Z" fill="#C4AE87"/>
<path d="M18.531 31.6442L21.122 30.1492L18.531 28.6532V31.6442Z" fill="#C4AE87"/>
<path d="M7.13379 26.9434C4.61914 26.9434 2.62305 26.7998 1.35352 25.54C0.42969 24.624 0 23.2451 0 21.2002C5.30178e-05 21.0013 0.0790877 20.8106 0.219728 20.6699C0.360369 20.5293 0.551104 20.4502 0.75 20.4502H20.6504C20.8493 20.4502 21.04 20.5293 21.1807 20.6699C21.3213 20.8106 21.4003 21.0013 21.4004 21.2002C21.4004 23.9854 15.3144 26.9307 9.56055 26.9307C9.11035 26.9307 8.6748 26.9346 8.25488 26.9375C7.87109 26.9404 7.49707 26.9434 7.13379 26.9434ZM1.52441 21.9502C1.50743 22.8709 1.82177 23.7672 2.41016 24.4756C3.41895 25.4766 5.44727 25.458 8.24216 25.4375C8.66599 25.4346 9.10642 25.4307 9.56052 25.4307C14.2383 25.4307 18.372 23.418 19.5585 21.9502H1.52441Z" fill="#C4AE87"/>
<path d="M10.8203 21.9501H9.43066C9.23177 21.9501 9.04103 21.871 8.90039 21.7304C8.75975 21.5898 8.68071 21.399 8.68066 21.2001V0.749935C8.68068 0.60102 8.72502 0.45548 8.80804 0.331856C8.89107 0.208233 9.00901 0.112124 9.14685 0.0557725C9.2847 -0.000578742 9.43619 -0.0146206 9.58204 0.015436C9.72789 0.0454926 9.86149 0.118287 9.96582 0.224545C10.2012 0.464775 15.7305 6.18054 15.7305 12.83C15.7143 14.5609 15.3064 16.2657 14.5373 17.8164C13.7683 19.3672 12.6581 20.7236 11.29 21.7841C11.157 21.8915 10.9913 21.9501 10.8203 21.9501ZM10.1807 20.4501H10.5518C11.6965 19.5366 12.6214 18.3775 13.2581 17.0586C13.8948 15.7397 14.2271 14.2946 14.2305 12.83C14.2305 8.69622 11.7598 4.83684 10.1807 2.79387V20.4501Z" fill="#C4AE87"/>
<path d="M7.15815 21.9502H5.98823C5.8867 21.9502 5.78623 21.9296 5.6929 21.8896C5.59957 21.8497 5.51531 21.7912 5.44523 21.7178C4.19069 20.4247 3.4918 18.6922 3.49797 16.8906C3.49797 13.0244 6.47746 9.71386 6.60441 9.57421C6.7064 9.46257 6.83976 9.38436 6.98699 9.34986C7.13422 9.31536 7.28844 9.32617 7.42942 9.38087C7.5704 9.43557 7.69155 9.53161 7.77697 9.65639C7.8624 9.78116 7.90811 9.92885 7.90812 10.0801V21.2002C7.90807 21.3991 7.82904 21.5898 7.6884 21.7304C7.54777 21.8711 7.35704 21.9501 7.15815 21.9502ZM6.32026 20.4502H6.40815V12.4131C5.55466 13.7566 5.06843 15.3005 4.998 16.8906C4.98486 18.1996 5.45576 19.4672 6.32026 20.4502Z" fill="#C4AE87"/>
</svg>
