<svg width="788" height="890" viewBox="0 0 788 890" fill="none" xmlns="http://www.w3.org/2000/svg">
<path d="M267.581 738.868C281.317 684.146 298.069 630.652 318.506 578.275C342.852 515.735 373.34 456.099 408.63 398.92C423.483 374.798 440.458 351.792 456.428 328.34C460.56 322.198 463.799 318.847 470.834 320.076C478.205 321.416 480.997 328.898 482.337 334.705C483.566 339.954 484.348 345.427 485.911 350.564C493.058 375.245 523.211 478.882 559.954 604.743C606.747 585.981 652.535 568.894 696.759 553.818C727.917 543.208 758.182 533.381 788 524.223C717.084 283.11 651.083 58.6374 641.925 27.0325C635.224 3.8035 630.311 0.341483 605.63 0.229805C560.735 0.118127 515.952 0.676517 471.058 0.00644853C453.636 -0.216907 438.895 5.36699 426.052 15.9764C373.898 59.4192 325.43 106.771 282.657 159.594C222.128 234.084 173.213 315.832 131.557 402.047C107.099 452.637 86.2154 505.014 68.4586 558.285C52.8237 605.078 40.8741 653.211 29.2596 701.344C14.1831 763.326 5.47222 826.089 0 889.298C86.4388 835.47 162.603 792.139 237.316 754.168C247.478 749.031 257.529 743.894 267.581 738.868Z" fill="white"/>
</svg>
