<svg width="32" height="22" viewBox="0 0 32 22" fill="none" xmlns="http://www.w3.org/2000/svg">
<path d="M16.7515 21.4983H11.9915C10.2162 21.5431 8.48226 20.9582 7.09677 19.8472C5.71128 18.7363 4.76359 17.1709 4.4215 15.4283L4.0115 13.5683C3.88415 12.9324 3.97967 12.2721 4.282 11.6984C4.58432 11.1247 5.07501 10.6727 5.6715 10.4183L12.6015 7.63828C13.7386 7.18828 15.0044 7.18828 16.1415 7.63828L23.0715 10.4183C23.6707 10.6692 24.164 11.1207 24.4669 11.6953C24.7697 12.27 24.8633 12.9322 24.7315 13.5683L24.3215 15.4283C23.9794 17.1709 23.0317 18.7363 21.6462 19.8472C20.2607 20.9582 18.5268 21.5431 16.7515 21.4983ZM14.3715 8.79828C13.9543 8.80098 13.541 8.87889 13.1515 9.02828L6.2215 11.8083C5.955 11.9296 5.73603 12.1356 5.5986 12.3942C5.46117 12.6528 5.41298 12.9495 5.4615 13.2383L5.8715 15.0983C6.13499 16.5103 6.8968 17.7807 8.01822 18.6782C9.13965 19.5757 10.5461 20.0406 11.9815 19.9883H16.7415C18.1769 20.0406 19.5834 19.5757 20.7048 18.6782C21.8262 17.7807 22.588 16.5103 22.8515 15.0983L23.2615 13.2383C23.31 12.9495 23.2618 12.6528 23.1244 12.3942C22.987 12.1356 22.768 11.9296 22.5015 11.8083L15.5715 9.02828C15.1894 8.87718 14.7824 8.79916 14.3715 8.79828Z" fill="#C4AE87"/>
<path d="M14.3737 21.5C14.1752 21.4986 13.9853 21.4191 13.8449 21.2788C13.7046 21.1384 13.6251 20.9485 13.6237 20.75V8.75C13.6237 8.55109 13.7027 8.36032 13.8433 8.21967C13.984 8.07902 14.1747 8 14.3737 8C14.5726 8 14.7633 8.07902 14.904 8.21967C15.0446 8.36032 15.1237 8.55109 15.1237 8.75V20.75C15.1222 20.9485 15.0428 21.1384 14.9024 21.2788C14.7621 21.4191 14.5721 21.4986 14.3737 21.5Z" fill="#C4AE87"/>
<path d="M21.3759 11.3C21.2805 11.298 21.186 11.2811 21.0959 11.25L15.5859 9.04C14.8055 8.73001 13.9362 8.73001 13.1559 9.04L7.64586 11.25C7.53139 11.2941 7.40793 11.3099 7.28603 11.296C7.16414 11.2821 7.04742 11.2388 6.94586 11.17C6.84368 11.1022 6.76 11.01 6.70239 10.9018C6.64477 10.7935 6.61503 10.6726 6.61586 10.55V6.75C6.61622 5.75555 7.01143 4.80193 7.71461 4.09875C8.41779 3.39557 9.37141 3.00036 10.3659 3H18.3659C19.3603 3.00036 20.3139 3.39557 21.0171 4.09875C21.7203 4.80193 22.1155 5.75555 22.1159 6.75V10.55C22.1167 10.6726 22.087 10.7935 22.0293 10.9018C21.9717 11.01 21.888 11.1022 21.7859 11.17C21.6673 11.2574 21.5231 11.3031 21.3759 11.3ZM14.3759 7.3C14.9822 7.29859 15.5832 7.41403 16.1459 7.64L20.6259 9.44V6.75C20.625 6.15354 20.3876 5.58176 19.9659 5.16C19.5441 4.73824 18.9723 4.5009 18.3759 4.5H10.3759C9.7794 4.5009 9.20762 4.73824 8.78586 5.16C8.3641 5.58176 8.12676 6.15354 8.12586 6.75V9.44L12.6059 7.64C13.1699 7.41876 13.77 7.3035 14.3759 7.3Z" fill="#C4AE87"/>
<path d="M16.8737 4.5H11.8737C11.6752 4.49857 11.4853 4.41909 11.3449 4.27875C11.2046 4.13841 11.1251 3.94847 11.1237 3.75V1.75C11.1259 1.28655 11.3109 0.842712 11.6387 0.515001C11.9664 0.187289 12.4102 0.00220608 12.8737 0L15.8737 0C16.3371 0.00220608 16.7809 0.187289 17.1087 0.515001C17.4364 0.842712 17.6215 1.28655 17.6237 1.75V3.75C17.6222 3.94847 17.5428 4.13841 17.4024 4.27875C17.2621 4.41909 17.0721 4.49857 16.8737 4.5ZM12.6237 3H16.1237V1.75C16.124 1.71708 16.1177 1.68442 16.1053 1.65395C16.0928 1.62347 16.0744 1.59578 16.0512 1.5725C16.0279 1.54922 16.0002 1.53082 15.9697 1.51837C15.9392 1.50592 15.9066 1.49968 15.8737 1.5H12.8737C12.8407 1.49968 12.8081 1.50592 12.7776 1.51837C12.7471 1.53082 12.7194 1.54922 12.6962 1.5725C12.6729 1.59578 12.6545 1.62347 12.642 1.65395C12.6296 1.68442 12.6233 1.71708 12.6237 1.75V3Z" fill="#C4AE87"/>
<path d="M27.9346 15.4999H24.2852C24.0862 15.4999 23.8955 15.4209 23.7548 15.2802C23.6142 15.1396 23.5352 14.9488 23.5352 14.7499C23.5352 14.551 23.6142 14.3602 23.7548 14.2195C23.8955 14.0789 24.0862 13.9999 24.2852 13.9999H27.9346C28.1335 13.9999 28.3242 14.0789 28.4649 14.2195C28.6055 14.3602 28.6846 14.551 28.6846 14.7499C28.6846 14.9488 28.6055 15.1396 28.4649 15.2802C28.3242 15.4209 28.1335 15.4999 27.9346 15.4999Z" fill="#C4AE87"/>
<path d="M4.39941 15.4999H0.75C0.551088 15.4999 0.360322 15.4209 0.21967 15.2802C0.0790176 15.1396 0 14.9488 0 14.7499C0 14.551 0.0790176 14.3602 0.21967 14.2195C0.360322 14.0789 0.551088 13.9999 0.75 13.9999H4.39941C4.59832 13.9999 4.78909 14.0789 4.92974 14.2195C5.07039 14.3602 5.14941 14.551 5.14941 14.7499C5.14941 14.9488 5.07039 15.1396 4.92974 15.2802C4.78909 15.4209 4.59832 15.4999 4.39941 15.4999Z" fill="#C4AE87"/>
<path d="M30.1895 18.9999C29.9906 18.9998 29.7998 18.9208 29.6592 18.7802C29.5185 18.6395 29.4395 18.4488 29.4395 18.2499V16.0878C29.4395 15.8889 29.5185 15.6981 29.6591 15.5574C29.7998 15.4168 29.9905 15.3378 30.1895 15.3378C30.3884 15.3378 30.5791 15.4168 30.7198 15.5574C30.8604 15.6981 30.9395 15.8889 30.9395 16.0878V18.2499C30.9394 18.4488 30.8604 18.6395 30.7197 18.7802C30.5791 18.9208 30.3884 18.9998 30.1895 18.9999Z" fill="#C4AE87"/>
<path d="M28.693 16.5251L30.189 13.9351L31.685 16.5251H28.693Z" fill="#C4AE87"/>
<path d="M28.693 17.812L30.189 20.403L31.685 17.812H28.693Z" fill="#C4AE87"/>
</svg>
