<svg width="31" height="30" viewBox="0 0 31 30" fill="none" xmlns="http://www.w3.org/2000/svg">
<path d="M15.3966 29.9797C23.7787 29.9797 30.5737 23.2685 30.5737 14.9898C30.5737 6.71118 23.7787 0 15.3966 0C7.01451 0 0.219482 6.71118 0.219482 14.9898C0.219482 23.2685 7.01451 29.9797 15.3966 29.9797Z" fill="white"/>
<path d="M23.7819 9.85374C23.2465 10.0807 22.684 10.2392 22.1079 10.3251C22.3772 10.2804 22.7724 9.7991 22.931 9.60442C23.1788 9.30862 23.3673 8.96903 23.4867 8.60372C23.5011 8.57522 23.5118 8.53934 23.4829 8.51771C23.4687 8.51171 23.4531 8.50925 23.4376 8.51053C23.4222 8.51182 23.4073 8.51682 23.3942 8.52509C22.7668 8.85572 22.1 9.10768 21.4094 9.27512C21.3855 9.28252 21.36 9.28308 21.3357 9.27675C21.3115 9.27042 21.2896 9.25745 21.2725 9.23934C21.2193 9.17662 21.1614 9.11804 21.0991 9.06414C20.8124 8.82031 20.4877 8.62384 20.1376 8.48234C19.6702 8.29546 19.1662 8.21527 18.6631 8.24777C18.1743 8.28046 17.6979 8.41338 17.264 8.63806C16.829 8.86249 16.445 9.17228 16.1355 9.54844C15.8144 9.93857 15.5843 10.3938 15.4615 10.8817C15.3562 11.344 15.3441 11.8223 15.4258 12.2893C15.4365 12.3679 15.4295 12.3786 15.3573 12.3679C12.7311 12.1037 10.2992 10.8812 8.53741 8.93947C8.45779 8.84987 8.4146 8.84987 8.34931 8.94634C7.99515 9.5922 7.86123 10.3336 7.96742 11.0606C8.0736 11.7876 8.41424 12.4614 8.9388 12.982C9.07249 13.1071 9.20993 13.2322 9.35795 13.3463C8.89921 13.312 8.45191 13.1882 8.04196 12.982C7.96235 12.9323 7.92238 12.9608 7.91532 13.05C7.91023 13.179 7.91745 13.3082 7.93691 13.4359C8.01727 14.0422 8.25915 14.6165 8.63782 15.1003C9.01648 15.584 9.51838 15.9598 10.0922 16.1893C10.2325 16.2494 10.3792 16.2937 10.5295 16.3213C10.1045 16.4053 9.66827 16.4186 9.23878 16.3608C9.14474 16.3429 9.10883 16.3894 9.14474 16.4786C9.36563 17.0498 9.73076 17.5557 10.2054 17.9483C10.6801 18.3409 11.2485 18.607 11.8566 18.7215C11.9795 18.7427 12.1025 18.7427 12.2259 18.7712C12.2184 18.7822 12.211 18.7822 12.204 18.7928C11.6771 19.262 11.0409 19.5951 10.3519 19.7623C9.45126 20.0797 8.49174 20.201 7.53915 20.1178C7.38792 20.0959 7.35615 20.0975 7.31515 20.1178C7.27363 20.1431 7.30985 20.1788 7.35843 20.2176C7.55026 20.3427 7.7454 20.4535 7.94428 20.5606C8.54173 20.8752 9.17223 21.1243 9.82453 21.3035C11.5023 21.8019 13.2832 21.8569 14.9893 21.4629C16.6953 21.0689 18.2668 20.2397 19.5469 19.0582C20.4686 18.0717 21.1814 16.9132 21.6434 15.6508C22.1055 14.3885 22.3075 13.0476 22.2376 11.7071C22.2376 11.6014 22.3641 11.5431 22.4391 11.4873C22.9448 11.1003 23.3905 10.6425 23.7623 10.1283C23.8207 10.0539 23.8516 9.96202 23.8499 9.86789V9.85374C23.8499 9.81058 23.8491 9.8235 23.7819 9.85374Z" fill="#006987"/>
</svg>
