<svg width="29" height="8" viewBox="0 0 29 8" fill="none" xmlns="http://www.w3.org/2000/svg">
<path d="M29 1.48735V5.82944C27.5723 6.79868 26.0638 7.60053 24.2917 7.84965C21.294 8.27004 18.4925 7.84771 15.9431 6.08829C14.6 5.16382 13.3205 4.1109 11.6446 3.80144C9.39345 3.38689 7.31735 3.73527 5.42981 5.09376C3.76161 6.29265 2.06263 7.42342 0 7.7971V4.03694C0.750437 3.78873 1.45946 3.42718 2.10304 2.96456C4.02714 1.59634 5.98202 0.344898 8.41601 0.0860465C11.1906 -0.21173 13.7727 0.2398 16.1239 1.81043C16.6588 2.16854 17.1899 2.53054 17.721 2.8906C20.6937 4.90886 23.8954 4.9147 26.872 2.85751C27.5723 2.37289 28.2727 1.9019 29 1.48735Z" fill="#C4AE87"/>
</svg>
