<svg width="22" height="27" viewBox="0 0 22 27" fill="none" xmlns="http://www.w3.org/2000/svg">
<path d="M7.12988 26.9423C4.61719 26.9423 2.62305 26.7987 1.35352 25.5399C0.42969 24.6239 0 23.245 0 21.2001C5.30178e-05 21.0012 0.0790877 20.8104 0.219728 20.6698C0.360369 20.5292 0.551104 20.4501 0.75 20.4501H20.6504C20.8493 20.4501 21.04 20.5292 21.1807 20.6698C21.3213 20.8104 21.4003 21.0012 21.4004 21.2001C21.4004 23.9843 15.3144 26.9296 9.56055 26.9296C9.10938 26.9296 8.67285 26.9335 8.25195 26.9364C7.86816 26.9393 7.49316 26.9423 7.12988 26.9423ZM1.52441 21.9501C1.5074 22.8705 1.82176 23.7664 2.41016 24.4745C3.41992 25.4755 5.44629 25.4579 8.24023 25.4364C8.66504 25.4335 9.10547 25.4296 9.56055 25.4296C14.2383 25.4296 18.3711 23.4169 19.5585 21.9501H1.52441Z" fill="#C4AE87"/>
<path d="M10.8203 21.9501H9.42969C9.23079 21.9501 9.04005 21.871 8.89941 21.7304C8.75877 21.5898 8.67974 21.399 8.67969 21.2001V0.749924C8.6797 0.601012 8.72405 0.455474 8.80707 0.331853C8.89009 0.208232 9.00804 0.112124 9.14588 0.0557733C9.28371 -0.000577558 9.43521 -0.0146202 9.58106 0.0154344C9.72691 0.0454889 9.86051 0.11828 9.96484 0.224534C10.2002 0.464774 15.7305 6.18062 15.7305 12.83C15.714 14.5607 15.3061 16.2653 14.5373 17.816C13.7685 19.3667 12.6587 20.7233 11.291 21.7841C11.1576 21.8914 10.9915 21.95 10.8203 21.9501ZM10.1797 20.4501H10.5518C11.6962 19.5363 12.6209 18.3772 13.2576 17.0584C13.8943 15.7395 14.2268 14.2945 14.2305 12.83C14.2305 8.69621 11.7588 4.83684 10.1797 2.79289V20.4501Z" fill="#C4AE87"/>
<path d="M7.15824 21.9501H5.98832C5.8868 21.9501 5.78633 21.9295 5.69299 21.8896C5.59966 21.8496 5.5154 21.7912 5.44532 21.7177C4.19064 20.4244 3.49174 18.6915 3.49809 16.8896C3.49809 13.0234 6.47758 9.71386 6.60453 9.57421C6.70653 9.46257 6.83989 9.38436 6.98712 9.34986C7.13435 9.31536 7.28857 9.32617 7.42954 9.38087C7.57052 9.43557 7.69167 9.53161 7.7771 9.65639C7.86252 9.78116 7.90824 9.92885 7.90824 10.0801V21.2001C7.90819 21.399 7.82916 21.5898 7.68851 21.7304C7.54787 21.8711 7.35714 21.9501 7.15824 21.9501ZM6.32035 20.4501H6.40824V12.412C5.55474 13.7556 5.06852 15.2995 4.99809 16.8896C4.98496 18.1989 5.45584 19.4668 6.32035 20.4501Z" fill="#C4AE87"/>
</svg>
