<svg width="16" height="27" viewBox="0 0 16 27" fill="none" xmlns="http://www.w3.org/2000/svg">
<path d="M9.46747 26.7106H7.77643C7.5344 26.7106 7.30229 26.6144 7.13115 26.4433C6.96001 26.2721 6.86383 26.04 6.86377 25.798V0.912567C6.86379 0.731359 6.91775 0.554257 7.01878 0.403825C7.11981 0.253393 7.26333 0.136441 7.43107 0.0678693C7.5988 -0.000702818 7.78315 -0.017791 7.96063 0.0187818C8.13811 0.0553545 8.30068 0.143933 8.42764 0.273231C8.71403 0.565574 15.4425 7.52104 15.4425 15.6126C15.4225 17.7187 14.9262 19.7929 13.9906 21.6799C13.055 23.5669 11.7045 25.2177 10.0403 26.5086C9.87792 26.6392 9.67584 26.7105 9.46747 26.7106ZM8.68909 24.8853H9.14066C10.5333 23.7734 11.6586 22.3629 12.4333 20.758C13.2081 19.1531 13.6127 17.3947 13.6172 15.6126C13.6172 10.5822 10.6107 5.88586 8.68909 3.39981V24.8853Z" fill="#C4AE87"/>
<path d="M5.01115 26.7107H3.58749C3.46395 26.7107 3.34169 26.6856 3.22812 26.637C3.11454 26.5884 3.01201 26.5172 2.92673 26.4278C1.39991 24.854 0.549439 22.7453 0.557181 20.5526C0.557181 15.8491 4.18286 11.8206 4.33736 11.6506C4.46147 11.5147 4.62376 11.4196 4.80292 11.3776C4.98208 11.3356 5.16975 11.3488 5.3413 11.4153C5.51285 11.4819 5.66028 11.5988 5.76423 11.7506C5.86818 11.9024 5.92381 12.0821 5.92381 12.2662V25.798C5.92375 26.04 5.82757 26.2721 5.65643 26.4433C5.48529 26.6144 5.25319 26.7106 5.01115 26.7107ZM3.99154 24.8853H4.0985V15.1052C3.05973 16.7395 2.46803 18.6179 2.3825 20.5526C2.36652 22.1458 2.93953 23.6888 3.99154 24.8853Z" fill="#C4AE87"/>
</svg>
