<svg xmlns="http://www.w3.org/2000/svg" viewBox="0 0 108.68449 150.89355"><defs><style>.cls-1,.cls-2{fill:none;stroke:#fff;stroke-linejoin:round;stroke-width:3px;}.cls-1{stroke-linecap:round;}</style></defs><g id="Calque_2" data-name="Calque 2"><g id="Calque_1-2" data-name="Calque 1"><path class="cls-1" d="M47.32877,99.04546,101.716,2.97383a2.92716,2.92716,0,1,1,5.081,2.908L52.40977,101.95348"/><path class="cls-2" d="M67.27644,118.708l.882-5.93211a1.64916,1.64916,0,0,0-.813-1.67443L31.00893,90.08563a1.64917,1.64917,0,0,0-1.933.21665l-4.35056,3.99118a1.64916,1.64916,0,0,0,.29855,2.64821l39.805,22.95679A1.64916,1.64916,0,0,0,67.27644,118.708Z"/><path class="cls-2" d="M67.00267,130.21741l-3.38183,15.51452a4.64776,4.64776,0,0,1-6.88713,3.02392l-9.405-5.51705v-5.34432l-3.78915,3.12261-5.98607-3.50523,4.49268-13.947L30.975,133.64866l-12.49059-7.30673,1.86373-9.57778L9.36325,120.99761l-5.56647-3.25843a4.64264,4.64264,0,0,1-.543-7.64l12.1943-9.72589a4.6506,4.6506,0,0,1,5.20857-.40724l44.112,25.24032A4.62509,4.62509,0,0,1,67.00267,130.21741Z"/><polyline class="cls-2" points="9.363 120.998 20.348 116.764 18.484 126.342"/><polyline class="cls-2" points="30.975 133.649 42.046 123.565 37.554 137.512 43.54 141.017 47.329 137.894 47.329 143.239"/></g></g></svg>