<svg xmlns="http://www.w3.org/2000/svg" viewBox="0 0 126.79698 150.14256"><defs><style>.cls-1{fill:#fff;}</style></defs><g id="Calque_2" data-name="Calque 2"><g id="Calque_1-2" data-name="Calque 1"><path class="cls-1" d="M93.80773,150.14256a7.525,7.525,0,0,1-6.50391-3.749L67.48253,112.063,48.47179,145.00242a7.5035,7.5035,0,0,1-12.999-7.499l23.791-41.19092a1.49982,1.49982,0,0,1,2.59766,1.5l-23.79,41.18994a4.50351,4.50351,0,0,0,7.80176,4.501L67.48253,106.062l22.419,38.83056a4.49921,4.49921,0,0,0,7.793-4.499L72.68077,97.06248l.4336-.75L120.46984,14.29c-6.76172,2.42237-21.5752,8.90332-32.03418,22.01758-9.46875,11.86523-16.56641,43.835-16.6377,44.15674l-.0498.22754-2.9668,5.13135a1.50031,1.50031,0,0,1-2.59766-1.502l2.73535-4.72949C69.62706,76.41991,76.5128,46.439,86.09,34.437c14.52637-18.21338,36.3291-23.981,37.25-24.21729l3.457-.88818L76.14562,97.06248l24.14648,41.83008a7.5099,7.5099,0,0,1-6.48437,11.25Z"/><path class="cls-1" d="M60.56359,98.563a1.49855,1.49855,0,0,1-1.29981-.75049L42.3839,68.5825a1.49982,1.49982,0,1,1,2.59765-1.5l16.87989,29.23A1.50088,1.50088,0,0,1,60.56359,98.563Z"/><path class="cls-1" d="M67.48351,86.57274a1.49787,1.49787,0,0,1-1.29981-.751L52.77452,62.582a1.49957,1.49957,0,1,1,2.59766-1.499L68.78136,84.32274a1.5001,1.5001,0,0,1-1.29785,2.25Z"/><path class="cls-1" d="M54.82042,63.13328l-1.5-2.59765,3.98438-2.3003a7.36807,7.36807,0,0,0,2.69726-10.06787L34.672,4.29491l2.59766-1.5L62.59972,46.66746A10.36764,10.36764,0,0,1,58.8048,60.833Z"/><path class="cls-1" d="M35.28136,72.82664a10.396,10.396,0,0,1-8.99317-5.19384L.95812,23.75975l2.59765-1.5L28.88585,66.1328a7.35914,7.35914,0,0,0,10.05859,2.70263l3.98438-2.30029,1.5,2.59863-3.98438,2.29981A10.29912,10.29912,0,0,1,35.28136,72.82664Z"/><path class="cls-1" d="M14.78136,47.71287.5753,23.10594a4.27755,4.27755,0,0,1,4.81153-6.271A4.24665,4.24665,0,0,1,7.98351,18.8286L22.19054,43.435l-2.59766,1.5L5.38585,20.32811A1.27754,1.27754,0,1,0,3.173,21.60545L17.379,46.21287Z"/><path class="cls-1" d="M23.30382,47.07567a4.3137,4.3137,0,0,1-1.11426-.14746,4.24662,4.24662,0,0,1-2.59668-1.99366L5.38585,20.32811l2.59766-1.5L22.19054,43.435a1.27754,1.27754,0,1,0,2.21289-1.27734L10.19737,17.55028l2.59766-1.5L27.00109,40.65721a4.28016,4.28016,0,0,1-3.69727,6.41846Z"/><path class="cls-1" d="M24.40343,42.15721,10.19737,17.55028a4.27706,4.27706,0,1,1,7.40821-4.27686l14.207,24.60645-2.59766,1.5-14.207-24.60694A1.27742,1.27742,0,1,0,12.795,16.04979L27.00109,40.65721Z"/><path class="cls-1" d="M32.963,41.499a4.3137,4.3137,0,0,1-1.11426-.14746,4.24662,4.24662,0,0,1-2.59668-1.99366L15.045,14.75145l2.59766-1.5,14.207,24.60693A1.27754,1.27754,0,1,0,34.06261,36.581l-14.207-24.60742,2.59765-1.5,14.207,24.60693A4.28073,4.28073,0,0,1,32.963,41.499Z"/><path class="cls-1" d="M34.06261,36.58055l-14.207-24.60693a4.27748,4.27748,0,1,1,7.40918-4.27686l14.207,24.60645-2.59766,1.5L24.6671,9.19627a1.278,1.278,0,0,0-2.21387,1.27735l14.207,24.60693Z"/><path class="cls-1" d="M42.58507,35.94383a4.2933,4.2933,0,0,1-1.11426-.148,4.24783,4.24783,0,0,1-2.59668-1.99267L24.6671,9.19627l2.59766-1.5,14.207,24.60694a1.27755,1.27755,0,1,0,2.21289-1.27735L29.47765,6.41844l2.59765-1.5,14.207,24.60693a4.28016,4.28016,0,0,1-3.69727,6.41846Z"/><path class="cls-1" d="M43.68468,31.02537,29.47765,6.41844a4.27748,4.27748,0,1,1,7.40918-4.27686l14.207,24.606-2.59766,1.5L34.28917,3.6411A1.27809,1.27809,0,0,0,32.0753,4.91893l14.207,24.60644Z"/></g></g></svg>