<svg xmlns="http://www.w3.org/2000/svg" viewBox="0 0 169.4707 113.30469"><defs><style>.cls-1{fill:#fff;}</style></defs><g id="Calque_2" data-name="Calque 2"><g id="Calque_1-2" data-name="Calque 1"><path class="cls-1" d="M157.58008,92.82227c-4.12988,0-9.46485-1.12354-16.38184-2.58057-13.0498-2.748-30.92285-6.51172-56.46777-6.51172-25.5459,0-43.417,3.76416-56.46582,6.51221-11.99317,2.52539-19.23047,4.05224-23.67285.44824C1.33008,88.04443,0,83.041,0,73.41992,0,48.3335,19.8252,29.80127,31.64258,20.9873,48.47266,8.43408,69.80762,0,84.73047,0c18.36523,0,39.28613,7.855,55.96387,21.01221C159.251,35.65234,169.4707,54.26416,169.4707,73.41992c0,9.62012-1.33008,14.623-4.59179,17.26953C162.99805,92.21582,160.61426,92.82227,157.58008,92.82227ZM84.73047,80.73c25.85742,0,44.65039,3.95752,57.08594,6.57617,10.74218,2.2627,17.84179,3.75684,21.17187,1.05371,2.4082-1.9541,3.48242-6.56152,3.48242-14.93994,0-18.21777-9.81445-35.99316-27.63476-50.05224C122.91113,10.8042,102.17969,3,84.73047,3,57.47168,3,3,33.44434,3,73.41992c0,8.3794,1.07422,12.98731,3.48145,14.94092,3.333,2.70215,10.42675,1.20752,21.165-1.0542C40.08105,84.6875,58.87207,80.73,84.73047,80.73Z"/><path class="cls-1" d="M84.73535,113.30469c-47.57617,0-60.63965-3.59131-65.61719-8.98389-3.10644-3.36572-2.78613-7.36523-2.44628-11.59961.05566-.6958.11328-1.40771.15624-2.13379a1.49971,1.49971,0,1,1,2.99415.17774c-.04395.74756-.10254,1.47949-.16016,2.1958-.30957,3.86865-.55469,6.92431,1.66113,9.32519,5.1875,5.62061,24.15235,8.01856,63.41211,8.01856,42.19141,0,60.67774-2.34717,65.9336-8.3711,2.168-2.48388,2.21972-5.69726,1.57519-10.40869a1.50015,1.50015,0,0,1,2.97266-.40625c.60742,4.44776.93164,9.09864-2.28711,12.7876C146.874,110.84521,129.0293,113.30469,84.73535,113.30469Z"/><path class="cls-1" d="M86.0332,57.814a1.50007,1.50007,0,0,1-1.5-1.5V26.96387a1.5,1.5,0,0,1,3,0V56.314A1.50007,1.50007,0,0,1,86.0332,57.814Z"/><path class="cls-1" d="M95.89355,37.86523H76.17383a1.5,1.5,0,0,1,0-3H95.89355a1.5,1.5,0,0,1,0,3Z"/><path class="cls-1" d="M86.0332,57.814a38.08209,38.08209,0,0,1-13.01562-2.27587,1.4998,1.4998,0,1,1,1.02148-2.82032,35.52519,35.52519,0,0,0,23.124.3003,1.50007,1.50007,0,0,1,.94726,2.84668A38.14965,38.14965,0,0,1,86.0332,57.814Z"/></g></g></svg>